<?xml version="1.0" encoding="UTF-8" standalone="no"?>
<!-- Created with Inkscape (http://www.inkscape.org/) -->

<svg
        width="67.733337mm"
        height="67.73333mm"
        viewBox="0 0 67.733337 67.73333"
        version="1.1"
        id="svg243950"
        inkscape:version="1.1 (c68e22c387, 2021-05-23)"
        sodipodi:docname="low.svg"
        xmlns:inkscape="http://www.inkscape.org/namespaces/inkscape"
        xmlns:sodipodi="http://sodipodi.sourceforge.net/DTD/sodipodi-0.dtd"
        xmlns="http://www.w3.org/2000/svg"
>
  <sodipodi:namedview
     id="namedview243952"
     pagecolor="#505050"
     bordercolor="#ffffff"
     borderopacity="1"
     inkscape:pageshadow="0"
     inkscape:pageopacity="0"
     inkscape:pagecheckerboard="1"
     inkscape:document-units="mm"
     showgrid="false"
     fit-margin-top="0"
     fit-margin-left="0"
     fit-margin-right="0"
     fit-margin-bottom="0"
     inkscape:zoom="1.0998546"
     inkscape:cx="5.9098721"
     inkscape:cy="-25.912516"
     inkscape:window-width="2560"
     inkscape:window-height="1377"
     inkscape:window-x="-8"
     inkscape:window-y="-8"
     inkscape:window-maximized="1"
     inkscape:current-layer="layer1" />
  <defs
     id="defs243947">
    <clipPath
       clipPathUnits="userSpaceOnUse"
       id="clipPath1088">
      <path
         d="m 4531.95,1198.07 c 25.35,10.82 51.54,19.02 78.19,24.59 28.32,5.91 57.13,8.98 85.96,8.98 27.33,0 54.66,-2.71 81.57,-8.03 25.03,-4.94 49.67,-12.2 73.61,-21.75 25.18,-10.04 49.56,-22.64 72.76,-37.78 23.77,-15.51 46.31,-33.63 67.15,-54.47 19.75,-19.75 37.04,-41.02 51.99,-63.4 14.41,-21.56 26.53,-44.2 36.49,-67.558 10.81,-25.343 19,-51.523 24.58,-78.183 5.91,-28.321 8.98,-57.129 8.98,-85.957 0,-27.332 -2.7,-54.66 -8.02,-81.563 -4.96,-25.027 -12.21,-49.668 -21.76,-73.613 -10.04,-25.176 -22.64,-49.563 -37.77,-72.773 -15.51,-23.758 -33.64,-46.309 -54.49,-67.149 -19.73,-19.746 -41.01,-37.039 -63.4,-51.992 -21.56,-14.406 -44.2,-26.524 -67.54,-36.484 -25.36,-10.809 -51.54,-19.004 -78.2,-24.583 -28.32,-5.917 -57.13,-8.972 -85.95,-8.98 -27.33,0.008 -54.65,2.703 -81.57,8.023 -25.02,4.954 -49.67,12.2 -73.6,21.75 -25.19,10.059 -49.57,22.637 -72.77,37.774 -23.77,15.508 -46.31,33.652 -67.16,54.492 -19.74,19.746 -37.04,41.016 -52,63.399 -14.4,21.562 -26.52,44.199 -36.47,67.539 -10.81,25.351 -19.01,51.543 -24.58,78.203 -5.92,28.32 -8.99,57.129 -8.99,85.957 0,27.336 2.7,54.66 8.02,81.562 4.95,25.02 12.21,49.668 21.77,73.614 10.04,25.175 22.64,49.562 37.77,72.772 15.51,23.76 33.64,46.3 54.49,67.14 19.74,19.74 41,37.04 63.38,52 21.58,14.4 44.21,26.53 67.56,36.47 z M 4315.78,1062.5 c -16.46,-25.23 -30.17,-51.77 -41.09,-79.168 -10.4,-26.047 -18.3,-52.863 -23.67,-80.09 -5.8,-29.258 -8.73,-58.992 -8.73,-88.73 0,-31.367 3.33,-62.696 9.76,-93.516 6.07,-28.992 14.98,-57.5 26.75,-85.078 10.83,-25.391 24.01,-50.02 39.68,-73.477 16.28,-24.355 35.09,-47.5 56.57,-68.972 22.68,-22.688 47.21,-42.414 73.07,-59.281 25.24,-16.465 51.76,-30.165 79.17,-41.09 26.04,-10.395 52.85,-18.293 80.07,-23.664 29.27,-5.801 59.01,-8.731 88.74,-8.731 31.36,0 62.7,3.328 93.52,9.766 28.99,6.062 57.49,14.98 85.06,26.738 25.4,10.84 50.03,24.023 73.48,39.695 24.36,16.262 47.5,35.09 68.98,56.567 22.68,22.683 42.4,47.195 59.28,73.054 16.46,25.243 30.16,51.778 41.09,79.168 10.39,26.047 18.28,52.864 23.67,80.09 5.79,29.258 8.73,58.992 8.73,88.731 0,31.367 -3.34,62.707 -9.77,93.515 -6.07,29.004 -14.98,57.489 -26.74,85.071 -10.83,25.402 -24.02,50.032 -39.69,73.482 -16.27,24.36 -35.08,47.5 -56.57,68.97 -22.68,22.68 -47.2,42.41 -73.05,59.27 -25.25,16.47 -51.77,30.18 -79.17,41.11 -26.04,10.38 -52.86,18.28 -80.08,23.66 -29.27,5.8 -59,8.73 -88.74,8.73 -31.36,0 -62.7,-3.33 -93.52,-9.77 -29.01,-6.06 -57.49,-14.98 -85.07,-26.73 -25.4,-10.84 -50.02,-24.03 -73.49,-39.7 -24.34,-16.26 -47.48,-35.09 -68.97,-56.57 -22.67,-22.68 -42.41,-47.19 -59.27,-73.05"
         id="path1086" />
    </clipPath>
    <clipPath
       clipPathUnits="userSpaceOnUse"
       id="clipPath1176">
      <path
         d="m 4129.81,547.629 -8.36,-3.949 2.03,0.961 6.33,2.976 c 0,0.012 0,0.012 0,0.012 z m -63.59,187.906 -0.46,-0.058 v 0 l 0.46,0.058 v 0 0"
         id="path1174" />
    </clipPath>
    <clipPath
       clipPathUnits="userSpaceOnUse"
       id="clipPath1186">
      <path
         d="m 4074.93,736.621 -8.71,-1.094 v 0.008 l -0.46,-0.058 c 2.18,-17.528 5.04,-34.852 8.62,-51.922 8.65,-41.289 21.31,-81.114 37.56,-119.043 3.02,-7.032 6.25,-13.938 9.51,-20.832 v 0 0 l 8.36,3.949 c -3.2,6.797 -6.4,13.601 -9.37,20.516 -16.01,37.382 -28.49,76.621 -37.02,117.324 -3.53,16.816 -6.34,33.879 -8.49,51.152 v 0"
         id="path1184" />
    </clipPath>
    <clipPath
       clipPathUnits="userSpaceOnUse"
       id="clipPath1196">
      <path
         d="m 4129.81,547.617 -6.33,-2.976 z m -54.88,189.016 -8.71,-1.098 v 0 -0.008 l 8.71,1.094 v 0.012 0"
         id="path1194" />
    </clipPath>
    <clipPath
       clipPathUnits="userSpaceOnUse"
       id="clipPath1206">
      <path
         d="m 5227,466.465 v 0 l 0.39,-0.254 v 0 l -0.39,0.254 v 0"
         id="path1204" />
    </clipPath>
    <clipPath
       clipPathUnits="userSpaceOnUse"
       id="clipPath1216">
      <path
         d="m 5219.66,471.277 c -23.57,-35.879 -50.66,-69.207 -80.9,-99.441 -16.31,-16.301 -33.6,-31.602 -51.62,-46.035 l 5.49,-6.856 v 0 l 0.28,-0.359 c 18.28,14.656 35.84,30.164 52.38,46.707 30.69,30.684 58.2,64.52 82.1,100.918 l -0.39,0.254 v 0 l -7.34,4.812 v 0"
         id="path1214" />
    </clipPath>
    <clipPath
       clipPathUnits="userSpaceOnUse"
       id="clipPath1226">
      <path
         d="m 5087.14,325.801 v 0 l 5.49,-6.856 v 0 z m 132.52,145.488 c 0,0 0,0 0,-0.012 l 7.34,-4.812 v 0 0 l -7.34,4.824 v 0"
         id="path1224" />
    </clipPath>
    <clipPath
       clipPathUnits="userSpaceOnUse"
       id="clipPath1236">
      <path
         d="m 4564.45,202.43 -1.95,-9.032 1.95,9.032 v 0 0"
         id="path1234" />
    </clipPath>
    <clipPath
       clipPathUnits="userSpaceOnUse"
       id="clipPath1246">
      <path
         d="m 4380.92,273.555 -4.66,-7.989 c 26.67,-15.578 54.58,-29.277 83.54,-40.886 32.97,-13.215 67.29,-23.711 102.7,-31.282 v 0 l 1.95,9.032 c -34.9,7.472 -68.73,17.804 -101.2,30.832 -28.55,11.445 -56.04,24.941 -82.33,40.293 v 0"
         id="path1244" />
    </clipPath>
    <clipPath
       clipPathUnits="userSpaceOnUse"
       id="clipPath1256">
      <path
         d="m 5326.45,893.535 -9.18,-1.152 v 0 l 5.19,0.652 3.99,0.5 v 0"
         id="path1254" />
    </clipPath>
    <clipPath
       clipPathUnits="userSpaceOnUse"
       id="clipPath1266">
      <path
         d="m 5270.75,1085.33 v 0 l -8.37,-3.94 c 3.22,-6.8 6.41,-13.61 9.38,-20.53 16.01,-37.38 28.49,-76.622 37.02,-117.325 3.52,-16.808 6.34,-33.879 8.49,-51.152 l 9.18,1.152 c -2.19,17.528 -5.04,34.844 -8.62,51.914 -8.65,41.309 -21.33,81.121 -37.58,119.041 -3,7.03 -6.25,13.95 -9.5,20.84 v 0"
         id="path1264" />
    </clipPath>
    <clipPath
       clipPathUnits="userSpaceOnUse"
       id="clipPath1276">
      <path
         d="m 5322.46,893.035 -5.19,-0.652 v 0 l 5.19,0.652 v 0"
         id="path1274" />
    </clipPath>
    <clipPath
       clipPathUnits="userSpaceOnUse"
       id="clipPath1286">
      <path
         d="m 5015.94,1363.45 -4.28,-7.34 3.97,6.8 0.31,0.54 v 0"
         id="path1284" />
    </clipPath>
    <clipPath
       clipPathUnits="userSpaceOnUse"
       id="clipPath1296">
      <path
         d="m 4829.7,1435.63 v 0 l -1.95,-9.05 c 34.89,-7.46 68.73,-17.81 101.21,-30.82 28.54,-11.46 56.04,-24.95 82.33,-40.3 l 0.37,0.65 4.28,7.34 c -26.67,15.57 -54.57,29.27 -83.55,40.89 -32.96,13.22 -67.28,23.71 -102.69,31.29 v 0"
         id="path1294" />
    </clipPath>
    <clipPath
       clipPathUnits="userSpaceOnUse"
       id="clipPath1306">
      <path
         d="m 5015.63,1362.91 -3.97,-6.8 -0.37,-0.65 v 0 l 4.34,7.45 v 0"
         id="path1304" />
    </clipPath>
    <clipPath
       clipPathUnits="userSpaceOnUse"
       id="clipPath1316">
      <path
         d="m 4164.8,1162.79 -0.87,-1.29 c -22.66,-34.7 -42.04,-71.73 -57.66,-110.7 -14.38,-35.86 -25.58,-73.327 -33.26,-112.07 -7.96,-40.175 -12.18,-81.71 -12.18,-124.218 0,-26.778 1.7,-53.145 4.93,-79.035 l 0.46,0.058 c -3.22,25.883 -4.92,52.219 -4.92,78.977 0,42.48 4.21,83.984 12.17,124.129 7.67,38.711 18.85,76.159 33.23,111.989 15.6,38.93 34.97,75.95 57.63,110.62 l 0.87,1.29 -0.4,0.25 v 0 0"
         id="path1314" />
    </clipPath>
    <clipPath
       clipPathUnits="userSpaceOnUse"
       id="clipPath1326">
      <path
         d="m 4165.2,1162.54 -0.87,-1.29 c -22.66,-34.67 -42.03,-71.69 -57.63,-110.62 -14.38,-35.83 -25.56,-73.278 -33.23,-111.989 -7.96,-40.145 -12.17,-81.649 -12.17,-124.129 0,-26.758 1.7,-53.094 4.92,-78.977 l 8.71,1.098 c -3.17,25.515 -4.85,51.492 -4.85,77.879 0,41.894 4.15,82.812 12,122.414 7.57,38.172 18.6,75.094 32.77,110.434 15.4,38.39 34.5,74.91 56.83,109.1 l 0.85,1.27 -7.33,4.81 v 0"
         id="path1324" />
    </clipPath>
    <clipPath
       clipPathUnits="userSpaceOnUse"
       id="clipPath1336">
      <path
         d="m 4164.8,1162.79 v 0 l 0.4,-0.25 7.33,-4.81 v 0 l -7.73,5.06 v 0"
         id="path1334" />
    </clipPath>
    <clipPath
       clipPathUnits="userSpaceOnUse"
       id="clipPath1346">
      <path
         d="m 4123.48,544.641 -2.03,-0.961 c 13.46,-28.504 28.87,-55.907 46.26,-81.903 23.23,-34.718 49.75,-67.043 79.18,-96.472 31.05,-31.039 65.32,-58.84 102.21,-82.961 8.9,-5.821 17.95,-11.406 27.16,-16.778 v 0 l 4.66,7.989 h -0.01 l -4.43,-7.586 c -9.18,5.359 -18.24,10.945 -27.12,16.765 -36.88,24.09 -71.12,51.883 -102.13,82.891 -29.42,29.414 -55.93,61.719 -79.14,96.418 -17.38,25.965 -32.77,53.348 -46.22,81.836 l 1.61,0.762 v 0"
         id="path1344" />
    </clipPath>
    <clipPath
       clipPathUnits="userSpaceOnUse"
       id="clipPath1356">
      <path
         d="m 4380.92,273.555 -4.66,-7.989 4.66,7.989 v 0 0"
         id="path1354" />
    </clipPath>
    <clipPath
       clipPathUnits="userSpaceOnUse"
       id="clipPath1366">
      <path
         d="m 4129.81,547.617 v 0 0 l -6.33,-2.976 -1.61,-0.762 c 13.45,-28.488 28.84,-55.871 46.22,-81.836 23.21,-34.699 49.72,-67.004 79.14,-96.418 31.01,-31.008 65.25,-58.801 102.13,-82.891 8.88,-5.82 17.94,-11.406 27.12,-16.765 l 4.43,7.586 c -9.07,5.293 -17.99,10.808 -26.76,16.535 -36.36,23.758 -70.13,51.16 -100.71,81.758 -29.01,28.992 -55.16,60.847 -78.05,95.066 -17.13,25.613 -32.31,52.617 -45.58,80.703 v 0"
         id="path1364" />
    </clipPath>
    <clipPath
       clipPathUnits="userSpaceOnUse"
       id="clipPath1376">
      <path
         d="m 5087.14,325.801 c -14.03,-11.231 -28.47,-21.973 -43.46,-31.992 -31.8,-21.282 -65.66,-39.727 -101.23,-54.961 -37.37,-16.016 -76.61,-28.489 -117.31,-37.024 -41.64,-8.719 -84.81,-13.34 -129.04,-13.34 -41.9,0 -82.82,4.153 -122.42,12.004 -3.09,0.606 -6.16,1.289 -9.23,1.942 l -1.95,-9.032 c 3.13,-0.683 6.23,-1.355 9.38,-1.972 40.17,-7.969 81.71,-12.188 124.22,-12.188 44.89,0 88.69,4.688 130.94,13.535 41.3,8.661 81.12,21.329 119.05,37.579 36.09,15.457 70.45,34.168 102.73,55.761 15.2,10.176 29.85,21.075 44.09,32.473 l -5.77,7.215"
         id="path1374" />
    </clipPath>
    <clipPath
       clipPathUnits="userSpaceOnUse"
       id="clipPath1386">
      <path
         d="m 5326.45,893.535 -9.18,-1.152 c 3.18,-25.52 4.86,-51.504 4.86,-77.871 0,-41.907 -4.15,-82.832 -12.01,-122.422 -7.56,-38.184 -18.6,-75.098 -32.77,-110.43 -15.4,-38.398 -34.49,-74.902 -56.84,-109.101 l -0.85,-1.27 7.73,-5.078 0.87,1.289 c 22.68,34.707 42.05,71.758 57.67,110.723 14.38,35.847 25.59,73.32 33.26,112.058 7.97,40.18 12.18,81.711 12.18,124.231 0,26.758 -1.7,53.125 -4.92,79.023"
         id="path1384" />
    </clipPath>
    <clipPath
       clipPathUnits="userSpaceOnUse"
       id="clipPath1396">
      <path
         d="m 5011.29,1355.46 c 9.06,-5.29 17.99,-10.81 26.76,-16.53 36.36,-23.76 70.13,-51.16 100.71,-81.76 29.01,-29.01 55.16,-60.86 78.04,-95.07 17.13,-25.62 32.32,-52.62 45.58,-80.71 l 8.37,3.94 c -13.45,28.51 -28.86,55.91 -46.26,81.9 -23.22,34.72 -49.75,67.05 -79.19,96.48 -31.04,31.04 -65.3,58.85 -102.19,82.96 -8.91,5.81 -17.97,11.4 -27.17,16.78 l -4.65,-7.99"
         id="path1394" />
    </clipPath>
    <clipPath
       clipPathUnits="userSpaceOnUse"
       id="clipPath1406">
      <path
         d="m 4696.1,1449.77 c -44.9,0 -88.69,-4.68 -130.96,-13.54 -41.29,-8.65 -81.12,-21.31 -119.04,-37.57 -36.09,-15.46 -70.46,-34.17 -102.73,-55.77 -15.19,-10.16 -29.84,-21.07 -44.08,-32.46 v 0 l 0.29,-0.36 c 14.24,11.38 28.87,22.29 44.05,32.45 32.25,21.56 66.58,40.26 102.66,55.72 37.9,16.23 77.68,28.89 118.96,37.54 42.23,8.85 85.99,13.54 130.85,13.54 42.49,0 83.99,-4.22 124.13,-12.17 3.14,-0.63 6.25,-1.31 9.37,-1.97 l -1.85,-8.6 v 0 l 1.95,9.05 c -3.12,0.66 -6.23,1.34 -9.37,1.97 -40.19,7.97 -81.72,12.17 -124.23,12.17 v 0"
         id="path1404" />
    </clipPath>
    <clipPath
       clipPathUnits="userSpaceOnUse"
       id="clipPath1416">
      <path
         d="m 4829.7,1435.63 -1.95,-9.05 v 0 l 1.95,9.05 v 0"
         id="path1414" />
    </clipPath>
    <clipPath
       clipPathUnits="userSpaceOnUse"
       id="clipPath1426">
      <path
         d="m 4696.1,1449.32 c -44.86,0 -88.62,-4.69 -130.85,-13.54 -41.28,-8.65 -81.06,-21.31 -118.96,-37.54 -36.08,-15.46 -70.41,-34.16 -102.66,-55.72 -15.18,-10.16 -29.81,-21.07 -44.05,-32.45 l 5.49,-6.87 c 14.02,11.23 28.46,22 43.44,32.01 31.8,21.27 65.67,39.71 101.24,54.95 37.36,16.01 76.61,28.49 117.3,37.03 41.65,8.72 84.81,13.34 129.05,13.34 41.9,0 82.83,-4.15 122.42,-11.99 3.09,-0.63 6.16,-1.29 9.23,-1.96 l 1.85,8.6 c -3.12,0.66 -6.23,1.34 -9.37,1.97 -40.14,7.95 -81.64,12.17 -124.13,12.17 v 0"
         id="path1424" />
    </clipPath>
    <clipPath
       clipPathUnits="userSpaceOnUse"
       id="clipPath1436">
      <path
         d="m 4299.29,1310.43 5.77,-7.23 v 0 h 0.01 l -5.49,6.87 -0.29,0.36 v 0"
         id="path1434" />
    </clipPath>
    <clipPath
       clipPathUnits="userSpaceOnUse"
       id="clipPath1446">
      <path
         d="m 4299.29,1310.43 c -18.29,-14.65 -35.84,-30.18 -52.4,-46.72 -30.67,-30.68 -58.18,-64.51 -82.09,-100.92 l 7.73,-5.06 c 23.57,35.87 50.67,69.2 80.9,99.44 16.31,16.31 33.61,31.6 51.63,46.03 l -5.77,7.23 v 0"
         id="path1444" />
    </clipPath>
    <clipPath
       clipPathUnits="userSpaceOnUse"
       id="clipPath1468">
      <path
         d="m 5039.62,590.508 c 14.88,22.801 27.26,46.758 37.12,71.504 9.39,23.523 16.52,47.754 21.39,72.343 5.23,26.438 7.89,53.282 7.89,80.157 0,28.32 -3.01,56.629 -8.83,84.472 -5.48,26.192 -13.54,51.922 -24.16,76.836 -9.79,22.95 -21.69,45.18 -35.84,66.37 -3.3,4.94 -6.75,9.79 -10.28,14.61 -1.09,1.49 -2.21,2.96 -3.32,4.43 -2.6,3.44 -5.25,6.86 -7.96,10.23 -1.22,1.52 -2.45,3.05 -3.7,4.56 -3.46,4.18 -7.01,8.32 -10.66,12.4 l -1.25,1.42 c -4.49,4.97 -9.14,9.87 -13.93,14.65 -5.06,5.06 -10.23,9.96 -15.48,14.69 l -0.02,0.02 0.02,-0.02 -0.02,0.02 -1.31,1.13 c -4.37,3.91 -8.82,7.68 -13.31,11.37 -1.6,1.31 -3.22,2.58 -4.84,3.87 -3.57,2.83 -7.17,5.6 -10.82,8.3 -1.57,1.17 -3.13,2.34 -4.72,3.48 -5.11,3.69 -10.27,7.27 -15.5,10.68 -22.79,14.88 -46.76,27.25 -71.5,37.13 -23.53,9.39 -47.76,16.51 -72.34,21.37 -26.45,5.24 -53.3,7.88 -80.16,7.88 -28.32,0 -56.63,-3 -84.47,-8.82 -26.19,-5.47 -51.91,-13.53 -76.82,-24.16 -22.95,-9.78 -45.2,-21.68 -66.38,-35.84 -22,-14.69 -42.9,-31.7 -62.31,-51.1 -20.48,-20.49 -38.3,-42.63 -53.54,-65.99 -14.87,-22.8 -27.25,-46.762 -37.12,-71.508 -9.38,-23.523 -16.52,-47.742 -21.38,-72.336 -5.22,-26.433 -7.88,-53.289 -7.88,-80.144 0,-28.34 3.01,-56.641 8.83,-84.473 5.47,-26.191 13.53,-51.934 24.15,-76.836 9.79,-22.949 21.69,-45.195 35.85,-66.387 3.29,-4.929 6.75,-9.785 10.27,-14.609 1.1,-1.484 2.21,-2.949 3.32,-4.434 2.59,-3.437 5.25,-6.843 7.97,-10.222 1.22,-1.516 2.44,-3.047 3.69,-4.563 3.47,-4.187 7.02,-8.34 10.68,-12.414 4.89,-5.445 9.93,-10.808 15.16,-16.062 20.48,-20.469 42.63,-38.301 65.99,-53.528 22.8,-14.871 46.76,-27.254 71.5,-37.129 23.53,-9.382 47.75,-16.511 72.35,-21.375 26.43,-5.234 53.29,-7.89 80.15,-7.89 28.33,0 56.63,3.008 84.47,8.828 26.19,5.477 51.93,13.535 76.84,24.16 22.94,9.785 45.19,21.699 66.37,35.84 22,14.707 42.9,31.699 62.31,51.102 20.47,20.48 38.3,42.628 53.53,65.988 z m -9.67,461.962 c -0.72,1.01 -1.41,2.05 -2.16,3.06 0.75,-1.01 1.44,-2.03 2.16,-3.06 z m -7.88,10.71 c -1.87,2.46 -3.78,4.91 -5.72,7.35 1.94,-2.44 3.85,-4.89 5.72,-7.35 z m -10.53,13.3 c -3.31,3.99 -6.69,7.93 -10.16,11.81 3.47,-3.89 6.85,-7.82 10.16,-11.81 z m -42.38,43.95 c -4.17,3.73 -8.42,7.32 -12.7,10.85 4.28,-3.53 8.53,-7.13 12.7,-10.85 z m -19,15.88 c -2.58,2.04 -5.19,4.02 -7.81,5.99 2.62,-1.97 5.23,-3.96 7.81,-5.99 z m -15.91,11.97 c -1.05,0.74 -2.11,1.45 -3.16,2.17 1.05,-0.72 2.11,-1.43 3.16,-2.17 z M 4362.23,576.582 c 0.73,-1.035 1.43,-2.09 2.18,-3.105 -0.75,1.015 -1.45,2.07 -2.18,3.105 z m 7.88,-10.723 c 1.89,-2.48 3.8,-4.941 5.75,-7.382 -1.94,2.441 -3.87,4.902 -5.75,7.382 z m 10.55,-13.32 c 3.31,-3.992 6.69,-7.949 10.19,-11.848 -3.49,3.899 -6.88,7.844 -10.19,11.848"
         id="path1466" />
    </clipPath>
  </defs>
  <g
     inkscape:label="Layer 1"
     inkscape:groupmode="layer"
     id="layer1">
    <path
       d="m 10.383316,34.211962 c 0,-13.123196 10.637614,-23.761406 23.760569,-23.761406 13.122957,0 23.761099,10.63821 23.761099,23.761406 0,13.122609 -10.638142,23.760874 -23.761099,23.760874 -13.122955,0 -23.760569,-10.638265 -23.760569,-23.760874"
       style="fill:#ffffff;fill-opacity:1;fill-rule:nonzero;stroke:none;stroke-width:0.0533108"
       id="path1066" />
    <path
       d="M 8.7082918,44.633623 C 8.0083337,42.999907 7.4634971,41.284999 7.0903142,39.505958 6.9367794,38.771492 6.8131054,38.024925 6.7192768,37.270042 l -6.45645169,0.809633 c 0.11620885,0.934435 0.26868574,1.857995 0.45953121,2.768014 0.46113308,2.201157 1.13605098,4.324269 2.00234338,6.346302 0.1609998,0.374882 0.3331975,0.743049 0.506997,1.110575 L 9.1182568,45.530101 C 8.9780202,45.233372 8.8383731,44.936217 8.7082918,44.633623 v 0"
       style="fill:#2c2b30;fill-opacity:1;fill-rule:nonzero;stroke:none;stroke-width:0.0533108"
       id="path1068" />
    <path
       d="m 62.190083,52.434515 -5.443016,-3.568318 c -1.028896,1.568143 -2.212925,3.025399 -3.533958,4.346765 -0.712758,0.712608 -1.468704,1.381075 -2.256644,2.011425 l 4.064407,5.080165 c 0.974524,-0.781326 1.910647,-1.608074 2.792413,-2.489997 1.636099,-1.635794 3.102687,-3.439625 4.376798,-5.38004 v 0"
       style="fill:#2c2b30;fill-opacity:1;fill-rule:nonzero;stroke:none;stroke-width:0.0533108"
       id="path1070" />
    <path
       d="m 23.690197,59.269145 c -1.248013,-0.49979 -2.44909,-1.090156 -3.598469,-1.761341 l -3.275942,5.623297 c 1.421798,0.830478 2.909695,1.560787 4.453565,2.179673 1.757655,0.704505 3.587287,1.264058 5.475008,1.667676 l 1.369013,-6.366507 C 26.588694,60.285412 25.10932,59.83872 23.690197,59.269145 v 0"
       style="fill:#2c2b30;fill-opacity:1;fill-rule:nonzero;stroke:none;stroke-width:0.0533108"
       id="path1072" />
    <path
       d="m 59.025032,23.10019 c 0.699444,1.633449 1.245338,3.348358 1.617977,5.126759 0.15408,0.735105 0.277225,1.480607 0.371052,2.236129 l 6.456981,-0.809633 c -0.116813,-0.934435 -0.268684,-1.857569 -0.459531,-2.767588 -0.461147,-2.202224 -1.137123,-4.324642 -2.003417,-6.346194 -0.15994,-0.374777 -0.333198,-0.743689 -0.506452,-1.111002 l -5.886032,2.773772 c 0.140237,0.297475 0.279884,0.594417 0.409422,0.897757 v 0"
       style="fill:#2c2b30;fill-opacity:1;fill-rule:nonzero;stroke:none;stroke-width:0.0533108"
       id="path1074" />
    <path
       d="m 44.043143,8.4631208 c 1.247468,0.5011247 2.449089,1.0912775 3.597939,1.7619292 L 50.917553,4.6018059 C 49.495756,3.7717537 48.008387,3.0413923 46.463446,2.4219182 44.706319,1.7171471 42.876701,1.1579146 40.988965,0.75381807 L 39.618894,7.121284 c 1.525207,0.3257299 3.005109,0.7735418 4.424249,1.3418368 v 0"
       style="fill:#2c2b30;fill-opacity:1;fill-rule:nonzero;stroke:none;stroke-width:0.0533108"
       id="path1076" />
    <path
       d="m 67.446515,29.656537 -6.45219,0.809048 v 0.0032 c -0.09384,-0.75595 -0.216429,-1.502091 -0.371035,-2.237623 -0.37211,-1.77739 -0.917478,-3.491232 -1.616377,-5.123453 -0.130564,-0.302807 -0.269759,-0.600816 -0.409964,-0.897758 l 5.29e-4,0.0011 5.881772,-2.772172 C 63.762229,17.921054 62.941243,16.460866 62.015228,15.07638 60.777899,13.225955 59.364624,11.505077 57.796756,9.9366659 56.143071,8.2834916 54.3177,6.8014462 52.35161,5.5166518 51.878204,5.2074467 51.395221,4.9094394 50.904755,4.6231588 l -3.273809,5.6195132 h 5.29e-4 C 46.483684,9.5725521 45.283137,8.9818659 44.035666,8.4823415 42.6176,7.9135145 41.138756,7.466768 39.615151,7.1410381 L 40.983634,0.77783673 C 40.817301,0.74265651 40.65151,0.70640335 40.484103,0.67280987 38.344214,0.24898794 36.131832,0.02401586 33.866652,0.02401586 c -2.391516,0 -4.724382,0.25002892 -6.97569,0.72183075 C 24.690293,1.2069871 22.569595,1.8819048 20.549117,2.7471418 18.625672,3.5713292 16.795511,4.5682457 15.076239,5.717631 14.266993,6.2592704 13.48652,6.840894 12.72737,7.4481065 l 4.061749,5.0762735 c -0.786337,0.629602 -1.542284,1.298123 -2.254513,2.010357 -1.335964,1.335974 -2.532794,2.810555 -3.570211,4.398158 l 0.03838,-0.05492 -5.4387556,-3.56544 -0.046393,0.06877 c -1.208028,1.848293 -2.2406547,3.821865 -3.0722961,5.897263 -0.7666157,1.910133 -1.3626204,3.906523 -1.7715124,5.970245 -0.42435119,2.140171 -0.64878991,4.352791 -0.64878991,6.617442 0,1.426496 0.0906701,2.831134 0.26227838,4.210769 l 6.45219013,-0.809688 -5.291e-4,-0.0066 c 0.092786,0.756963 0.2164448,1.504595 0.3710374,2.241781 0.3726539,1.776748 0.9174906,3.490804 1.6163909,5.122867 0.1295072,0.302966 0.2692146,0.599749 0.4094207,0.896478 l -5.8817695,2.772171 c 0.7170343,1.518725 1.5374779,2.978539 2.4640207,4.36276 1.2373446,1.849838 2.6506043,3.57205 4.2190156,5.14014 1.6531578,1.653067 3.4785138,3.134739 5.4446198,4.419002 0.473389,0.31027 0.956388,0.608066 1.44578,0.893759 l 3.274868,-5.618872 -5.29e-4,-6.41e-4 c 1.147778,0.671186 2.34834,1.260538 3.59581,1.760917 1.543341,0.61894 3.155986,1.101032 4.823017,1.431079 -0.135403,-0.02708 -0.268158,-0.06083 -0.4025,-0.08957 l -1.368486,6.361922 c 0.166335,0.03539 0.332126,0.07186 0.498988,0.105178 2.140418,0.424195 4.352817,0.648688 6.617981,0.648688 2.391516,0 4.724397,-0.249495 6.975705,-0.720924 2.200124,-0.461514 4.321897,-1.136218 6.34183,-2.001295 1.922388,-0.824189 3.753077,-1.820678 5.472877,-2.970597 0.80926,-0.542065 1.590262,-1.123103 2.34887,-1.730102 l -4.062277,-5.076006 c 0.787407,-0.630989 1.542282,-1.298443 2.255041,-2.010625 1.320503,-1.320299 2.502947,-2.776969 3.531841,-4.343993 l 5.438756,3.566185 0.04639,-0.06871 c 1.208013,-1.849198 2.240111,-3.822345 3.072826,-5.898168 0.766072,-1.910028 1.36262,-3.906044 1.770983,-5.969766 0.424881,-2.140758 0.64879,-4.352791 0.64879,-6.618081 0,-1.42543 -0.09007,-2.830068 -0.261765,-4.209704 z m -9.219546,-8.194593 c -0.04685,-0.09383 -0.0949,-0.18659 -0.14341,-0.279884 0.04851,0.0933 0.09656,0.186056 0.14341,0.279884 z M 57.20714,19.630177 c -0.194577,-0.318266 -0.393432,-0.633868 -0.600281,-0.944137 0.206849,0.310269 0.406762,0.625337 0.600281,0.944137 z m 0.539504,0.928144 c -0.08795,-0.157267 -0.178062,-0.312935 -0.268687,-0.468071 0.09067,0.155668 0.181266,0.310804 0.268687,0.468071 z M 18.686447,11.127072 c -0.329979,0.220708 -0.653581,0.450478 -0.972906,0.685579 0.318252,-0.236167 0.642927,-0.464871 0.972906,-0.685579 z M 6.6419806,36.354798 6.6525586,36.48077 Z M 6.5401279,34.675287 c 0.00151,0.06728 0.00453,0.133921 0.00756,0.200984 -0.00302,-0.06707 -0.00605,-0.133709 -0.00756,-0.200984 z m 0.037326,0.825682 c 0.00302,0.06355 0.00756,0.126032 0.012089,0.188455 -0.00302,-0.06243 -0.00756,-0.124914 -0.012089,-0.188455 z m 2.9283572,10.769462 c 0.048055,0.09436 0.095506,0.188455 0.1450721,0.281108 -0.049113,-0.09265 -0.097017,-0.186748 -0.1450721,-0.281108 z m 1.0198269,1.831552 c 0.195122,0.318587 0.393977,0.634721 0.60081,0.944352 -0.206833,-0.309631 -0.405688,-0.625126 -0.60081,-0.944352 z M 9.985607,47.1732 c 0.088554,0.158652 0.179119,0.315493 0.271345,0.472068 -0.09112,-0.156575 -0.182851,-0.312775 -0.271345,-0.472068 z m 39.060728,9.433542 c 0.330522,-0.221189 0.654653,-0.451918 0.97505,-0.687233 -0.319341,0.23638 -0.644528,0.466044 -0.97505,0.687233 z m 4.719589,-9.764658 c -0.903089,1.378569 -1.939448,2.662405 -3.100556,3.823359 -1.1014,1.100606 -2.310485,2.092883 -3.60752,2.961692 -1.2075,0.808621 -2.49228,1.508756 -3.841573,2.088299 -1.418063,0.609131 -2.907032,1.083919 -4.451432,1.408797 -1.581197,0.333193 -3.21891,0.510186 -4.898197,0.510186 -1.590246,0 -3.143199,-0.159294 -4.647083,-0.459167 -1.448456,-0.288413 -2.847858,-0.71117 -4.189685,-1.250517 -1.45592,-0.586208 -2.840936,-1.310277 -4.138516,-2.159521 -1.379137,-0.901703 -2.662331,-1.938761 -3.823437,-3.099769 -1.100856,-1.100552 -2.09244,-2.310446 -2.961936,-3.607823 -0.808188,-1.20744 -1.508161,-2.491702 -2.087649,-3.840471 -0.609333,-1.418819 -1.084868,-2.907742 -1.408998,-4.451895 -0.333198,-1.581631 -0.510186,-3.219504 -0.510186,-4.899014 0,-1.589948 0.159398,-3.143482 0.458474,-4.647014 0.288935,-1.448352 0.711699,-2.847766 1.251202,-4.189497 0.585351,-1.456138 1.309835,-2.840625 2.159081,-4.138214 0.902546,-1.379689 1.938905,-2.662351 3.100012,-3.823465 1.100327,-1.101405 2.309957,-2.09299 3.607537,-2.962492 1.206955,-0.807662 2.492264,-1.508701 3.840498,-2.087659 1.419123,-0.609878 2.908093,-1.084879 4.451979,-1.409543 1.581724,-0.332127 3.219421,-0.510186 4.898707,-0.510186 1.590792,0 3.143729,0.160466 4.6471,0.459008 1.448985,0.288411 2.847858,0.712235 4.189685,1.251742 1.455904,0.584821 2.840392,1.309851 4.137972,2.158562 1.37968,0.902556 2.662859,1.939455 3.823965,3.100568 1.100873,1.100872 2.092454,2.309432 2.961407,3.608089 0.808733,1.206427 1.509233,2.491223 2.088721,3.839884 0.608806,1.419193 1.084339,2.908116 1.409528,4.452269 0.331597,1.581631 0.509127,3.219504 0.509127,4.897948 0,1.590374 -0.15994,3.143483 -0.459017,4.647013 -0.287878,1.44878 -0.711685,2.848194 -1.251202,4.189925 -0.584806,1.455657 -1.309306,2.840464 -2.158008,4.138906 z m 7.314751,-15.585151 0.01058,0.114517 z m 0.06347,0.792362 c 0.003,0.05939 0.0076,0.118718 0.01209,0.178698 -0.003,-0.05998 -0.0076,-0.119307 -0.01209,-0.178698 z m 0.04156,0.811126 c 0.0016,0.06563 0.006,0.131201 0.0075,0.196771 -0.0016,-0.06557 -0.006,-0.13114 -0.0075,-0.196771 v 0"
       style="fill:#ebe7ea;fill-opacity:1;fill-rule:nonzero;stroke:none;stroke-width:0.0533108"
       id="path1078" />
    <path
       d="m 14.52023,14.520318 c 0.712759,-0.712235 1.469235,-1.380756 2.256629,-2.011958 L 12.712465,7.4283554 C 11.737414,8.2093608 10.801804,9.0372808 9.9189796,9.9190455 8.2839406,11.554627 6.8173668,13.358137 5.5427115,15.299191 l 5.4435455,3.568105 c 1.029438,-1.567877 2.212925,-3.025932 3.533973,-4.346978 v 0"
       style="fill:#2c2b30;fill-opacity:1;fill-rule:nonzero;stroke:none;stroke-width:0.0533108"
       id="path1080" />
    <g
       id="g1082"
       transform="matrix(0.05331067,0,0,-0.053311,-216.48556,77.288691)">
      <g
         id="g1084"
         clip-path="url(#clipPath1088)">
        <path
           d="m 4531.95,1198.07 c 25.35,10.82 51.54,19.02 78.19,24.59 28.32,5.91 57.13,8.98 85.96,8.98 27.33,0 54.66,-2.71 81.57,-8.03 25.03,-4.94 49.67,-12.2 73.61,-21.75 25.18,-10.04 49.56,-22.64 72.76,-37.78 23.77,-15.51 46.31,-33.63 67.15,-54.47 19.75,-19.75 37.04,-41.02 51.99,-63.4 14.41,-21.56 26.53,-44.2 36.49,-67.558 10.81,-25.343 19,-51.523 24.58,-78.183 5.91,-28.321 8.98,-57.129 8.98,-85.957 0,-27.332 -2.7,-54.66 -8.02,-81.563 -4.96,-25.027 -12.21,-49.668 -21.76,-73.613 -10.04,-25.176 -22.64,-49.563 -37.77,-72.773 -15.51,-23.758 -33.64,-46.309 -54.49,-67.149 -19.73,-19.746 -41.01,-37.039 -63.4,-51.992 -21.56,-14.406 -44.2,-26.524 -67.54,-36.484 -25.36,-10.809 -51.54,-19.004 -78.2,-24.583 -28.32,-5.917 -57.13,-8.972 -85.95,-8.98 -27.33,0.008 -54.65,2.703 -81.57,8.023 -25.02,4.954 -49.67,12.2 -73.6,21.75 -25.19,10.059 -49.57,22.637 -72.77,37.774 -23.77,15.508 -46.31,33.652 -67.16,54.492 -19.74,19.746 -37.04,41.016 -52,63.399 -14.4,21.562 -26.52,44.199 -36.47,67.539 -10.81,25.351 -19.01,51.543 -24.58,78.203 -5.92,28.32 -8.99,57.129 -8.99,85.957 0,27.336 2.7,54.66 8.02,81.562 4.95,25.02 12.21,49.668 21.77,73.614 10.04,25.175 22.64,49.562 37.77,72.772 15.51,23.76 33.64,46.3 54.49,67.14 19.74,19.74 41,37.04 63.38,52 21.58,14.4 44.21,26.53 67.56,36.47 z M 4315.78,1062.5 c -16.46,-25.23 -30.17,-51.77 -41.09,-79.168 -10.4,-26.047 -18.3,-52.863 -23.67,-80.09 -5.8,-29.258 -8.73,-58.992 -8.73,-88.73 0,-31.367 3.33,-62.696 9.76,-93.516 6.07,-28.992 14.98,-57.5 26.75,-85.078 10.83,-25.391 24.01,-50.02 39.68,-73.477 16.28,-24.355 35.09,-47.5 56.57,-68.972 22.68,-22.688 47.21,-42.414 73.07,-59.281 25.24,-16.465 51.76,-30.165 79.17,-41.09 26.04,-10.395 52.85,-18.293 80.07,-23.664 29.27,-5.801 59.01,-8.731 88.74,-8.731 31.36,0 62.7,3.328 93.52,9.766 28.99,6.062 57.49,14.98 85.06,26.738 25.4,10.84 50.03,24.023 73.48,39.695 24.36,16.262 47.5,35.09 68.98,56.567 22.68,22.683 42.4,47.195 59.28,73.054 16.46,25.243 30.16,51.778 41.09,79.168 10.39,26.047 18.28,52.864 23.67,80.09 5.79,29.258 8.73,58.992 8.73,88.731 0,31.367 -3.34,62.707 -9.77,93.515 -6.07,29.004 -14.98,57.489 -26.74,85.071 -10.83,25.402 -24.02,50.032 -39.69,73.482 -16.27,24.36 -35.08,47.5 -56.57,68.97 -22.68,22.68 -47.2,42.41 -73.05,59.27 -25.25,16.47 -51.77,30.18 -79.17,41.11 -26.04,10.38 -52.86,18.28 -80.08,23.66 -29.27,5.8 -59,8.73 -88.74,8.73 -31.36,0 -62.7,-3.33 -93.52,-9.77 -29.01,-6.06 -57.49,-14.98 -85.07,-26.73 -25.4,-10.84 -50.02,-24.03 -73.49,-39.7 -24.34,-16.26 -47.48,-35.09 -68.97,-56.57 -22.67,-22.68 -42.41,-47.19 -59.27,-73.05"
           id="path1090" />
      </g>
    </g>
    <path
       d="m 52.042934,21.732763 1.598258,-1.066754 c -0.869495,-1.298655 -1.862138,-2.508815 -2.963008,-3.61022 l -1.359416,1.358364 c 1.012359,1.012376 1.925045,2.124976 2.724166,3.31861"
       style="fill:#201d20;fill-opacity:1;fill-rule:nonzero;stroke:none;stroke-width:0.0533108"
       id="path1092" />
    <path
       d="m 53.964251,25.265683 1.766721,-0.755951 c -0.579488,-1.350367 -1.28052,-2.635695 -2.08978,-3.843723 l -1.598258,1.066754 c 0.743693,1.110468 1.388221,2.292427 1.921317,3.53292"
       style="fill:#ddd6d6;fill-opacity:1;fill-rule:nonzero;stroke:none;stroke-width:0.0533108"
       id="path1094" />
    <path
       d="m 55.259698,29.360873 1.881344,-0.396314 c -0.324673,-1.545005 -0.799663,-3.035581 -1.41007,-4.454827 l -1.766721,0.755951 c 0.560295,1.30532 0.997445,2.674933 1.295447,4.09519"
       style="fill:#201d20;fill-opacity:1;fill-rule:nonzero;stroke:none;stroke-width:0.0533108"
       id="path1096" />
    <path
       d="m 49.318768,49.31918 1.358358,1.358791 c 1.162163,-1.162019 2.200124,-2.446921 3.102671,-3.826557 L 52.169812,45.80188 c -0.829511,1.268215 -1.783238,2.448948 -2.851044,3.5173"
       style="fill:#ddd6d6;fill-opacity:1;fill-rule:nonzero;stroke:none;stroke-width:0.0533108"
       id="path1098" />
    <path
       d="m 13.577155,25.738391 -1.784296,-0.715327 c -0.540047,1.342585 -0.963869,2.743651 -1.252276,4.19307 l 1.886135,0.375844 c 0.264424,-1.332776 0.654125,-2.619704 1.150437,-3.853587"
       style="fill:#ddd6d6;fill-opacity:1;fill-rule:nonzero;stroke:none;stroke-width:0.0533108"
       id="path1100" />
    <path
       d="m 12.473096,38.372725 -1.881329,0.395622 c 0.325188,1.545219 0.800194,3.035848 1.4106,4.455466 l 1.766707,-0.756589 C 13.208778,41.162171 12.772171,39.79293 12.473096,38.372725"
       style="fill:#201d20;fill-opacity:1;fill-rule:nonzero;stroke:none;stroke-width:0.0533108"
       id="path1102" />
    <path
       d="m 12.426718,29.591978 -1.886135,-0.375844 c -0.299075,1.504544 -0.459002,3.059146 -0.459002,4.650106 h 1.922388 c 0,-1.462267 0.147187,-2.891481 0.422749,-4.274262"
       style="fill:#201d20;fill-opacity:1;fill-rule:nonzero;stroke:none;stroke-width:0.0533108"
       id="path1104" />
    <path
       d="m 12.003969,33.86624 h -1.922388 c 0,1.680577 0.176988,3.319463 0.510186,4.902107 l 1.881329,-0.395622 C 12.167099,36.917709 12.003969,35.411033 12.003969,33.86624"
       style="fill:#ddd6d6;fill-opacity:1;fill-rule:nonzero;stroke:none;stroke-width:0.0533108"
       id="path1106" />
    <path
       d="m 13.769074,42.467224 -1.766707,0.756589 c 0.580017,1.349408 1.280519,2.635324 2.089779,3.843137 l 1.597714,-1.067233 c -0.743148,-1.109934 -1.387147,-2.291733 -1.920786,-3.532493"
       style="fill:#ddd6d6;fill-opacity:1;fill-rule:nonzero;stroke:none;stroke-width:0.0533108"
       id="path1108" />
    <path
       d="m 18.414572,49.31918 -1.358888,1.358791 c 1.162164,1.160954 2.445887,2.199079 3.826097,3.101793 L 21.932013,52.17004 C 20.663206,51.3402 19.482379,50.386413 18.414572,49.31918"
       style="fill:#ddd6d6;fill-opacity:1;fill-rule:nonzero;stroke:none;stroke-width:0.0533108"
       id="path1110" />
    <path
       d="m 15.68986,45.999717 -1.597714,1.067233 c 0.869497,1.299083 1.862138,2.509402 2.963538,3.611021 L 18.414572,49.31918 C 17.402195,48.306057 16.489525,47.193991 15.68986,45.999717"
       style="fill:#201d20;fill-opacity:1;fill-rule:nonzero;stroke:none;stroke-width:0.0533108"
       id="path1112" />
    <path
       d="m 21.932013,52.17004 -1.050232,1.609724 c 1.298653,0.849672 2.684727,1.574968 4.141705,2.160589 l 0.714903,-1.784266 C 24.399222,53.617379 23.125096,52.951365 21.932013,52.17004"
       style="fill:#201d20;fill-opacity:1;fill-rule:nonzero;stroke:none;stroke-width:0.0533108"
       id="path1114" />
    <path
       d="m 15.562453,21.931613 -1.608926,-1.049694 c -0.84976,1.298656 -1.574789,2.684742 -2.160668,4.141145 l 1.784296,0.715327 c 0.538445,-1.339438 1.205354,-2.613677 1.985298,-3.806778"
       style="fill:#201d20;fill-opacity:1;fill-rule:nonzero;stroke:none;stroke-width:0.0533108"
       id="path1116" />
    <path
       d="m 33.866662,12.003505 v -1.922928 c -1.680345,0 -3.319116,0.178059 -4.902441,0.511252 l 0.396621,1.881346 c 1.454862,-0.306005 2.961421,-0.46967 4.50582,-0.46967"
       style="fill:#ddd6d6;fill-opacity:1;fill-rule:nonzero;stroke:none;stroke-width:0.0533108"
       id="path1118" />
    <path
       d="m 25.266059,13.769699 -0.756476,-1.767792 c -1.349292,0.579489 -2.635689,1.281063 -3.843702,2.089789 l 1.067278,1.598798 c 1.109922,-0.743689 2.292351,-1.388218 3.5329,-1.920795"
       style="fill:#ddd6d6;fill-opacity:1;fill-rule:nonzero;stroke:none;stroke-width:0.0533108"
       id="path1120" />
    <path
       d="m 29.360842,12.473175 -0.396621,-1.881346 c -1.544944,0.324665 -3.034986,0.800731 -4.454638,1.410078 l 0.756476,1.767792 c 1.304517,-0.561365 2.674058,-0.997982 4.094783,-1.296524"
       style="fill:#201d20;fill-opacity:1;fill-rule:nonzero;stroke:none;stroke-width:0.0533108"
       id="path1122" />
    <path
       d="m 18.414572,18.414153 -1.358888,-1.358364 c -1.162179,1.161647 -2.199597,2.445909 -3.102157,3.82613 l 1.608926,1.049694 c 0.83004,-1.268802 1.783769,-2.449107 2.852119,-3.51746"
       style="fill:#ddd6d6;fill-opacity:1;fill-rule:nonzero;stroke:none;stroke-width:0.0533108"
       id="path1124" />
    <path
       d="m 21.733159,15.690494 -1.067278,-1.598798 c -1.298653,0.870037 -2.508797,1.862154 -3.610197,2.964093 l 1.358888,1.358364 c 1.011833,-1.012376 2.124431,-1.924527 3.318587,-2.723659"
       style="fill:#201d20;fill-opacity:1;fill-rule:nonzero;stroke:none;stroke-width:0.0533108"
       id="path1126" />
    <path
       d="m 55.259698,29.360873 c 0.306541,1.454592 0.469673,2.961214 0.469673,4.505367 h 1.922915 c 0,-1.679882 -0.178062,-3.319409 -0.511244,-4.901681 l -1.881344,0.396314"
       style="fill:#ddd6d6;fill-opacity:1;fill-rule:nonzero;stroke:none;stroke-width:0.0533108"
       id="path1128" />
    <path
       d="m 55.307149,38.14157 1.885061,0.375468 c 0.299606,-1.504809 0.460076,-3.058719 0.460076,-4.650798 h -1.922915 c 0,1.462961 -0.146585,2.891535 -0.422222,4.27533"
       style="fill:#201d20;fill-opacity:1;fill-rule:nonzero;stroke:none;stroke-width:0.0533108"
       id="path1130" />
    <path
       d="m 49.318768,18.414153 1.359416,-1.358364 c -1.16218,-1.162181 -2.446959,-2.199078 -3.827171,-3.103234 l -1.049158,1.609992 c 1.268791,0.82952 2.449089,1.783787 3.516913,2.851606"
       style="fill:#ddd6d6;fill-opacity:1;fill-rule:nonzero;stroke:none;stroke-width:0.0533108"
       id="path1132" />
    <path
       d="m 54.156169,41.994516 1.78431,0.7149 c 0.540033,-1.342159 0.963324,-2.742585 1.251731,-4.192378 L 55.307149,38.14157 c -0.26548,1.331708 -0.654653,2.619276 -1.15098,3.852946"
       style="fill:#ddd6d6;fill-opacity:1;fill-rule:nonzero;stroke:none;stroke-width:0.0533108"
       id="path1134" />
    <path
       d="m 25.738389,54.156087 -0.714903,1.784266 c 1.342371,0.539988 2.742845,0.963757 4.192889,1.251956 l 0.37584,-1.885023 c -1.332759,-0.265543 -2.619684,-0.654927 -3.853826,-1.151199"
       style="fill:#ddd6d6;fill-opacity:1;fill-rule:nonzero;stroke:none;stroke-width:0.0533108"
       id="path1136" />
    <path
       d="m 45.801855,15.562547 1.049158,-1.609992 C 45.55289,13.10331 44.16736,12.378282 42.70931,11.792394 l -0.714359,1.784319 c 1.339151,0.538441 2.613276,1.204828 3.806904,1.985834"
       style="fill:#201d20;fill-opacity:1;fill-rule:nonzero;stroke:none;stroke-width:0.0533108"
       id="path1138" />
    <path
       d="m 41.994951,13.576713 0.714359,-1.784319 c -1.341827,-0.539507 -2.742303,-0.963331 -4.19236,-1.251742 l -0.375828,1.88561 c 1.33276,0.264421 2.619688,0.654659 3.853829,1.150451"
       style="fill:#ddd6d6;fill-opacity:1;fill-rule:nonzero;stroke:none;stroke-width:0.0533108"
       id="path1140" />
    <path
       d="m 52.169812,45.80188 1.609985,1.049534 c 0.849775,-1.299029 1.574802,-2.684902 2.160682,-4.141998 l -1.78431,-0.7149 c -0.53843,1.339651 -1.204809,2.613677 -1.986357,3.807364"
       style="fill:#201d20;fill-opacity:1;fill-rule:nonzero;stroke:none;stroke-width:0.0533108"
       id="path1142" />
    <path
       d="m 33.866662,55.729615 v 1.922502 c 1.680358,0 3.319129,-0.177633 4.901912,-0.510187 l -0.396092,-1.881506 c -1.454846,0.306112 -2.961407,0.469191 -4.50582,0.469191"
       style="fill:#ddd6d6;fill-opacity:1;fill-rule:nonzero;stroke:none;stroke-width:0.0533108"
       id="path1144" />
    <path
       d="m 38.141122,12.426262 0.375828,-1.88561 c -1.504429,-0.300141 -3.058422,-0.460075 -4.650288,-0.460075 v 1.922928 c 1.462842,0 2.891576,0.1466 4.27446,0.422757"
       style="fill:#201d20;fill-opacity:1;fill-rule:nonzero;stroke:none;stroke-width:0.0533108"
       id="path1146" />
    <path
       d="m 29.592215,55.307286 -0.37584,1.885023 c 1.504428,0.299448 3.058967,0.459808 4.650287,0.459808 v -1.922502 c -1.462841,0 -2.89103,-0.147461 -4.274447,-0.422329"
       style="fill:#201d20;fill-opacity:1;fill-rule:nonzero;stroke:none;stroke-width:0.0533108"
       id="path1148" />
    <path
       d="m 38.372482,55.260424 0.396092,1.881506 c 1.544944,-0.325517 3.035514,-0.800731 4.455181,-1.410875 l -0.756476,-1.766993 c -1.305044,0.560192 -2.674601,0.997501 -4.094797,1.296362"
       style="fill:#201d20;fill-opacity:1;fill-rule:nonzero;stroke:none;stroke-width:0.0533108"
       id="path1150" />
    <path
       d="m 42.467279,53.964062 0.756476,1.766993 c 1.349293,-0.579971 2.635147,-1.28069 3.84316,-2.089739 l -1.067279,-1.598317 c -1.109921,0.743476 -2.291823,1.387952 -3.532357,1.921063"
       style="fill:#ddd6d6;fill-opacity:1;fill-rule:nonzero;stroke:none;stroke-width:0.0533108"
       id="path1152" />
    <path
       d="m 45.999636,52.042999 1.067279,1.598317 c 1.299181,-0.869448 2.508811,-1.861727 3.610211,-2.963345 L 49.318768,49.31918 c -1.012907,1.012057 -2.124977,1.924154 -3.319132,2.723819"
       style="fill:#201d20;fill-opacity:1;fill-rule:nonzero;stroke:none;stroke-width:0.0533108"
       id="path1154" />
    <path
       d="m 6.8504162,38.173823 c 0.010578,0.07287 0.019796,0.146826 0.031432,0.219693 -0.012089,-0.07287 -0.020249,-0.146826 -0.031432,-0.219693"
       style="fill:#201d20;fill-opacity:1;fill-rule:nonzero;stroke:none;stroke-width:0.0533108"
       id="path1156" />
    <path
       d="m 53.213109,53.212962 c 1.321033,-1.321366 2.505062,-2.778622 3.533958,-4.346765 -1.028896,1.568143 -2.212925,3.025399 -3.533958,4.346765"
       style="fill:#201d20;fill-opacity:1;fill-rule:nonzero;stroke:none;stroke-width:0.0533108"
       id="path1158" />
    <path
       d="m 25.879669,60.036558 c 0.730348,0.222413 1.475626,0.413373 2.231044,0.574746 -0.755418,-0.161373 -1.499624,-0.353613 -2.231044,-0.574746"
       style="fill:#201d20;fill-opacity:1;fill-rule:nonzero;stroke:none;stroke-width:0.0533108"
       id="path1160" />
    <path
       d="m 24.791053,59.681506 c 0.294814,0.104121 0.593889,0.198211 0.893494,0.291931 -0.300134,-0.09307 -0.59868,-0.18888 -0.893494,-0.291931"
       style="fill:#201d20;fill-opacity:1;fill-rule:nonzero;stroke:none;stroke-width:0.0533108"
       id="path1162" />
    <path
       d="m 60.851461,29.338963 0.0154,0.106251 -0.0154,-0.106251"
       style="fill:#201d20;fill-opacity:1;fill-rule:nonzero;stroke:none;stroke-width:0.0533108"
       id="path1164" />
    <path
       d="m 12.643163,16.602112 c -0.588026,0.722364 -1.138182,1.476182 -1.651571,2.256655 0.513389,-0.780473 1.064074,-1.534291 1.651571,-2.256655"
       style="fill:#f7f5f5;fill-opacity:1;fill-rule:nonzero;stroke:none;stroke-width:0.0533108"
       id="path1166" />
    <path
       d="m 13.553173,15.539624 c -0.286819,0.318266 -0.565101,0.645063 -0.836447,0.976657 0.271346,-0.331594 0.549628,-0.658391 0.836447,-0.976657"
       style="fill:#f7f5f5;fill-opacity:1;fill-rule:nonzero;stroke:none;stroke-width:0.0533108"
       id="path1168" />
    <g
       id="g1170"
       transform="matrix(0.05331067,0,0,-0.053311,-216.48556,77.288691)">
      <g
         id="g1172"
         clip-path="url(#clipPath1176)">
        <path
           d="m 4129.81,547.629 -8.36,-3.949 2.03,0.961 6.33,2.976 c 0,0.012 0,0.012 0,0.012 z m -63.59,187.906 -0.46,-0.058 v 0 l 0.46,0.058 v 0 0"
           id="path1178" />
      </g>
    </g>
    <g
       id="g1180"
       transform="matrix(0.05331067,0,0,-0.053311,-216.48556,77.288691)">
      <g
         id="g1182"
         clip-path="url(#clipPath1186)">
        <path
           d="m 4074.93,736.621 -8.71,-1.094 v 0.008 l -0.46,-0.058 c 2.18,-17.528 5.04,-34.852 8.62,-51.922 8.65,-41.289 21.31,-81.114 37.56,-119.043 3.02,-7.032 6.25,-13.938 9.51,-20.832 v 0 0 l 8.36,3.949 c -3.2,6.797 -6.4,13.601 -9.37,20.516 -16.01,37.382 -28.49,76.621 -37.02,117.324 -3.53,16.816 -6.34,33.879 -8.49,51.152 v 0"
           id="path1188" />
      </g>
    </g>
    <g
       id="g1190"
       transform="matrix(0.05331067,0,0,-0.053311,-216.48556,77.288691)">
      <g
         id="g1192"
         clip-path="url(#clipPath1196)">
        <path
           d="m 4129.81,547.617 -6.33,-2.976 z m -54.88,189.016 -8.71,-1.098 v 0 -0.008 l 8.71,1.094 v 0.012 0"
           id="path1198" />
      </g>
    </g>
    <g
       id="g1200"
       transform="matrix(0.05331067,0,0,-0.053311,-216.48556,77.288691)">
      <g
         id="g1202"
         clip-path="url(#clipPath1206)">
        <path
           d="m 5227,466.465 v 0 l 0.39,-0.254 v 0 l -0.39,0.254 v 0"
           id="path1208" />
      </g>
    </g>
    <g
       id="g1210"
       transform="matrix(0.05331067,0,0,-0.053311,-216.48556,77.288691)">
      <g
         id="g1212"
         clip-path="url(#clipPath1216)">
        <path
           d="m 5219.66,471.277 c -23.57,-35.879 -50.66,-69.207 -80.9,-99.441 -16.31,-16.301 -33.6,-31.602 -51.62,-46.035 l 5.49,-6.856 v 0 l 0.28,-0.359 c 18.28,14.656 35.84,30.164 52.38,46.707 30.69,30.684 58.2,64.52 82.1,100.918 l -0.39,0.254 v 0 l -7.34,4.812 v 0"
           id="path1218" />
      </g>
    </g>
    <g
       id="g1220"
       transform="matrix(0.05331067,0,0,-0.053311,-216.48556,77.288691)">
      <g
         id="g1222"
         clip-path="url(#clipPath1226)">
        <path
           d="m 5087.14,325.801 v 0 l 5.49,-6.856 v 0 z m 132.52,145.488 c 0,0 0,0 0,-0.012 l 7.34,-4.812 v 0 0 l -7.34,4.824 v 0"
           id="path1228" />
      </g>
    </g>
    <g
       id="g1230"
       transform="matrix(0.05331067,0,0,-0.053311,-216.48556,77.288691)">
      <g
         id="g1232"
         clip-path="url(#clipPath1236)">
        <path
           d="m 4564.45,202.43 -1.95,-9.032 1.95,9.032 v 0 0"
           id="path1238" />
      </g>
    </g>
    <g
       id="g1240"
       transform="matrix(0.05331067,0,0,-0.053311,-216.48556,77.288691)">
      <g
         id="g1242"
         clip-path="url(#clipPath1246)">
        <path
           d="m 4380.92,273.555 -4.66,-7.989 c 26.67,-15.578 54.58,-29.277 83.54,-40.886 32.97,-13.215 67.29,-23.711 102.7,-31.282 v 0 l 1.95,9.032 c -34.9,7.472 -68.73,17.804 -101.2,30.832 -28.55,11.445 -56.04,24.941 -82.33,40.293 v 0"
           id="path1248" />
      </g>
    </g>
    <g
       id="g1250"
       transform="matrix(0.05331067,0,0,-0.053311,-216.48556,77.288691)">
      <g
         id="g1252"
         clip-path="url(#clipPath1256)">
        <path
           d="m 5326.45,893.535 -9.18,-1.152 v 0 l 5.19,0.652 3.99,0.5 v 0"
           id="path1258" />
      </g>
    </g>
    <g
       id="g1260"
       transform="matrix(0.05331067,0,0,-0.053311,-216.48556,77.288691)">
      <g
         id="g1262"
         clip-path="url(#clipPath1266)">
        <path
           d="m 5270.75,1085.33 v 0 l -8.37,-3.94 c 3.22,-6.8 6.41,-13.61 9.38,-20.53 16.01,-37.38 28.49,-76.622 37.02,-117.325 3.52,-16.808 6.34,-33.879 8.49,-51.152 l 9.18,1.152 c -2.19,17.528 -5.04,34.844 -8.62,51.914 -8.65,41.309 -21.33,81.121 -37.58,119.041 -3,7.03 -6.25,13.95 -9.5,20.84 v 0"
           id="path1268" />
      </g>
    </g>
    <g
       id="g1270"
       transform="matrix(0.05331067,0,0,-0.053311,-216.48556,77.288691)">
      <g
         id="g1272"
         clip-path="url(#clipPath1276)">
        <path
           d="m 5322.46,893.035 -5.19,-0.652 v 0 l 5.19,0.652 v 0"
           id="path1278" />
      </g>
    </g>
    <g
       id="g1280"
       transform="matrix(0.05331067,0,0,-0.053311,-216.48556,77.288691)">
      <g
         id="g1282"
         clip-path="url(#clipPath1286)">
        <path
           d="m 5015.94,1363.45 -4.28,-7.34 3.97,6.8 0.31,0.54 v 0"
           id="path1288" />
      </g>
    </g>
    <g
       id="g1290"
       transform="matrix(0.05331067,0,0,-0.053311,-216.48556,77.288691)">
      <g
         id="g1292"
         clip-path="url(#clipPath1296)">
        <path
           d="m 4829.7,1435.63 v 0 l -1.95,-9.05 c 34.89,-7.46 68.73,-17.81 101.21,-30.82 28.54,-11.46 56.04,-24.95 82.33,-40.3 l 0.37,0.65 4.28,7.34 c -26.67,15.57 -54.57,29.27 -83.55,40.89 -32.96,13.22 -67.28,23.71 -102.69,31.29 v 0"
           id="path1298" />
      </g>
    </g>
    <g
       id="g1300"
       transform="matrix(0.05331067,0,0,-0.053311,-216.48556,77.288691)">
      <g
         id="g1302"
         clip-path="url(#clipPath1306)">
        <path
           d="m 5015.63,1362.91 -3.97,-6.8 -0.37,-0.65 v 0 l 4.34,7.45 v 0"
           id="path1308" />
      </g>
    </g>
    <g
       id="g1310"
       transform="matrix(0.05331067,0,0,-0.053311,-216.48556,77.288691)">
      <g
         id="g1312"
         clip-path="url(#clipPath1316)">
        <path
           d="m 4164.8,1162.79 -0.87,-1.29 c -22.66,-34.7 -42.04,-71.73 -57.66,-110.7 -14.38,-35.86 -25.58,-73.327 -33.26,-112.07 -7.96,-40.175 -12.18,-81.71 -12.18,-124.218 0,-26.778 1.7,-53.145 4.93,-79.035 l 0.46,0.058 c -3.22,25.883 -4.92,52.219 -4.92,78.977 0,42.48 4.21,83.984 12.17,124.129 7.67,38.711 18.85,76.159 33.23,111.989 15.6,38.93 34.97,75.95 57.63,110.62 l 0.87,1.29 -0.4,0.25 v 0 0"
           id="path1318" />
      </g>
    </g>
    <g
       id="g1320"
       transform="matrix(0.05331067,0,0,-0.053311,-216.48556,77.288691)">
      <g
         id="g1322"
         clip-path="url(#clipPath1326)">
        <path
           d="m 4165.2,1162.54 -0.87,-1.29 c -22.66,-34.67 -42.03,-71.69 -57.63,-110.62 -14.38,-35.83 -25.56,-73.278 -33.23,-111.989 -7.96,-40.145 -12.17,-81.649 -12.17,-124.129 0,-26.758 1.7,-53.094 4.92,-78.977 l 8.71,1.098 c -3.17,25.515 -4.85,51.492 -4.85,77.879 0,41.894 4.15,82.812 12,122.414 7.57,38.172 18.6,75.094 32.77,110.434 15.4,38.39 34.5,74.91 56.83,109.1 l 0.85,1.27 -7.33,4.81 v 0"
           id="path1328" />
      </g>
    </g>
    <g
       id="g1330"
       transform="matrix(0.05331067,0,0,-0.053311,-216.48556,77.288691)">
      <g
         id="g1332"
         clip-path="url(#clipPath1336)">
        <path
           d="m 4164.8,1162.79 v 0 l 0.4,-0.25 7.33,-4.81 v 0 l -7.73,5.06 v 0"
           id="path1338" />
      </g>
    </g>
    <g
       id="g1340"
       transform="matrix(0.05331067,0,0,-0.053311,-216.48556,77.288691)">
      <g
         id="g1342"
         clip-path="url(#clipPath1346)">
        <path
           d="m 4123.48,544.641 -2.03,-0.961 c 13.46,-28.504 28.87,-55.907 46.26,-81.903 23.23,-34.718 49.75,-67.043 79.18,-96.472 31.05,-31.039 65.32,-58.84 102.21,-82.961 8.9,-5.821 17.95,-11.406 27.16,-16.778 v 0 l 4.66,7.989 h -0.01 l -4.43,-7.586 c -9.18,5.359 -18.24,10.945 -27.12,16.765 -36.88,24.09 -71.12,51.883 -102.13,82.891 -29.42,29.414 -55.93,61.719 -79.14,96.418 -17.38,25.965 -32.77,53.348 -46.22,81.836 l 1.61,0.762 v 0"
           id="path1348" />
      </g>
    </g>
    <g
       id="g1350"
       transform="matrix(0.05331067,0,0,-0.053311,-216.48556,77.288691)">
      <g
         id="g1352"
         clip-path="url(#clipPath1356)">
        <path
           d="m 4380.92,273.555 -4.66,-7.989 4.66,7.989 v 0 0"
           id="path1358" />
      </g>
    </g>
    <g
       id="g1360"
       transform="matrix(0.05331067,0,0,-0.053311,-216.48556,77.288691)">
      <g
         id="g1362"
         clip-path="url(#clipPath1366)">
        <path
           d="m 4129.81,547.617 v 0 0 l -6.33,-2.976 -1.61,-0.762 c 13.45,-28.488 28.84,-55.871 46.22,-81.836 23.21,-34.699 49.72,-67.004 79.14,-96.418 31.01,-31.008 65.25,-58.801 102.13,-82.891 8.88,-5.82 17.94,-11.406 27.12,-16.765 l 4.43,7.586 c -9.07,5.293 -17.99,10.808 -26.76,16.535 -36.36,23.758 -70.13,51.16 -100.71,81.758 -29.01,28.992 -55.16,60.847 -78.05,95.066 -17.13,25.613 -32.31,52.617 -45.58,80.703 v 0"
           id="path1368" />
      </g>
    </g>
    <g
       id="g1370"
       transform="matrix(0.05331067,0,0,-0.053311,-216.48556,77.288691)">
      <g
         id="g1372"
         clip-path="url(#clipPath1376)">
        <path
           d="m 5087.14,325.801 c -14.03,-11.231 -28.47,-21.973 -43.46,-31.992 -31.8,-21.282 -65.66,-39.727 -101.23,-54.961 -37.37,-16.016 -76.61,-28.489 -117.31,-37.024 -41.64,-8.719 -84.81,-13.34 -129.04,-13.34 -41.9,0 -82.82,4.153 -122.42,12.004 -3.09,0.606 -6.16,1.289 -9.23,1.942 l -1.95,-9.032 c 3.13,-0.683 6.23,-1.355 9.38,-1.972 40.17,-7.969 81.71,-12.188 124.22,-12.188 44.89,0 88.69,4.688 130.94,13.535 41.3,8.661 81.12,21.329 119.05,37.579 36.09,15.457 70.45,34.168 102.73,55.761 15.2,10.176 29.85,21.075 44.09,32.473 l -5.77,7.215"
           id="path1378" />
      </g>
    </g>
    <g
       id="g1380"
       transform="matrix(0.05331067,0,0,-0.053311,-216.48556,77.288691)">
      <g
         id="g1382"
         clip-path="url(#clipPath1386)">
        <path
           d="m 5326.45,893.535 -9.18,-1.152 c 3.18,-25.52 4.86,-51.504 4.86,-77.871 0,-41.907 -4.15,-82.832 -12.01,-122.422 -7.56,-38.184 -18.6,-75.098 -32.77,-110.43 -15.4,-38.398 -34.49,-74.902 -56.84,-109.101 l -0.85,-1.27 7.73,-5.078 0.87,1.289 c 22.68,34.707 42.05,71.758 57.67,110.723 14.38,35.847 25.59,73.32 33.26,112.058 7.97,40.18 12.18,81.711 12.18,124.231 0,26.758 -1.7,53.125 -4.92,79.023"
           id="path1388" />
      </g>
    </g>
    <g
       id="g1390"
       transform="matrix(0.05331067,0,0,-0.053311,-216.48556,77.288691)">
      <g
         id="g1392"
         clip-path="url(#clipPath1396)">
        <path
           d="m 5011.29,1355.46 c 9.06,-5.29 17.99,-10.81 26.76,-16.53 36.36,-23.76 70.13,-51.16 100.71,-81.76 29.01,-29.01 55.16,-60.86 78.04,-95.07 17.13,-25.62 32.32,-52.62 45.58,-80.71 l 8.37,3.94 c -13.45,28.51 -28.86,55.91 -46.26,81.9 -23.22,34.72 -49.75,67.05 -79.19,96.48 -31.04,31.04 -65.3,58.85 -102.19,82.96 -8.91,5.81 -17.97,11.4 -27.17,16.78 l -4.65,-7.99"
           id="path1398" />
      </g>
    </g>
    <g
       id="g1400"
       transform="matrix(0.05331067,0,0,-0.053311,-216.48556,77.288691)">
      <g
         id="g1402"
         clip-path="url(#clipPath1406)">
        <path
           d="m 4696.1,1449.77 c -44.9,0 -88.69,-4.68 -130.96,-13.54 -41.29,-8.65 -81.12,-21.31 -119.04,-37.57 -36.09,-15.46 -70.46,-34.17 -102.73,-55.77 -15.19,-10.16 -29.84,-21.07 -44.08,-32.46 v 0 l 0.29,-0.36 c 14.24,11.38 28.87,22.29 44.05,32.45 32.25,21.56 66.58,40.26 102.66,55.72 37.9,16.23 77.68,28.89 118.96,37.54 42.23,8.85 85.99,13.54 130.85,13.54 42.49,0 83.99,-4.22 124.13,-12.17 3.14,-0.63 6.25,-1.31 9.37,-1.97 l -1.85,-8.6 v 0 l 1.95,9.05 c -3.12,0.66 -6.23,1.34 -9.37,1.97 -40.19,7.97 -81.72,12.17 -124.23,12.17 v 0"
           id="path1408" />
      </g>
    </g>
    <g
       id="g1410"
       transform="matrix(0.05331067,0,0,-0.053311,-216.48556,77.288691)">
      <g
         id="g1412"
         clip-path="url(#clipPath1416)">
        <path
           d="m 4829.7,1435.63 -1.95,-9.05 v 0 l 1.95,9.05 v 0"
           id="path1418" />
      </g>
    </g>
    <g
       id="g1420"
       transform="matrix(0.05331067,0,0,-0.053311,-216.48556,77.288691)">
      <g
         id="g1422"
         clip-path="url(#clipPath1426)">
        <path
           d="m 4696.1,1449.32 c -44.86,0 -88.62,-4.69 -130.85,-13.54 -41.28,-8.65 -81.06,-21.31 -118.96,-37.54 -36.08,-15.46 -70.41,-34.16 -102.66,-55.72 -15.18,-10.16 -29.81,-21.07 -44.05,-32.45 l 5.49,-6.87 c 14.02,11.23 28.46,22 43.44,32.01 31.8,21.27 65.67,39.71 101.24,54.95 37.36,16.01 76.61,28.49 117.3,37.03 41.65,8.72 84.81,13.34 129.05,13.34 41.9,0 82.83,-4.15 122.42,-11.99 3.09,-0.63 6.16,-1.29 9.23,-1.96 l 1.85,8.6 c -3.12,0.66 -6.23,1.34 -9.37,1.97 -40.14,7.95 -81.64,12.17 -124.13,12.17 v 0"
           id="path1428" />
      </g>
    </g>
    <g
       id="g1430"
       transform="matrix(0.05331067,0,0,-0.053311,-216.48556,77.288691)">
      <g
         id="g1432"
         clip-path="url(#clipPath1436)">
        <path
           d="m 4299.29,1310.43 5.77,-7.23 v 0 h 0.01 l -5.49,6.87 -0.29,0.36 v 0"
           id="path1438" />
      </g>
    </g>
    <g
       id="g1440"
       transform="matrix(0.05331067,0,0,-0.053311,-216.48556,77.288691)">
      <g
         id="g1442"
         clip-path="url(#clipPath1446)">
        <path
           d="m 4299.29,1310.43 c -18.29,-14.65 -35.84,-30.18 -52.4,-46.72 -30.67,-30.68 -58.18,-64.51 -82.09,-100.92 l 7.73,-5.06 c 23.57,35.87 50.67,69.2 80.9,99.44 16.31,16.31 33.61,31.6 51.63,46.03 l -5.77,7.23 v 0"
           id="path1448" />
      </g>
    </g>
    <path
       d="m 39.683392,62.40911 c 0,-0.761761 0.617871,-1.380275 1.380209,-1.380275 0.762355,0 1.380755,0.618514 1.380755,1.380275 0,0.76256 -0.6184,1.380009 -1.380755,1.380009 -0.762338,0 -1.380209,-0.617449 -1.380209,-1.380009"
       style="fill:#201d20;fill-opacity:1;fill-rule:nonzero;stroke:none;stroke-width:0.0533108"
       id="path1450" />
    <path
       d="m 25.683474,5.3241701 c 0,-0.7623469 0.617871,-1.3807557 1.380753,-1.3807557 0.761812,0 1.379683,0.6184088 1.379683,1.3807557 0,0.7618135 -0.617871,1.3796888 -1.379683,1.3796888 -0.762882,0 -1.380753,-0.6178753 -1.380753,-1.3796888"
       style="fill:#201d20;fill-opacity:1;fill-rule:nonzero;stroke:none;stroke-width:0.0533108"
       id="path1452" />
    <path
       d="m 3.5984724,28.690275 c 0,-0.762134 0.6178714,-1.380008 1.3807395,-1.380008 0.762339,0 1.3802104,0.617874 1.3802104,1.380008 0,0.762188 -0.6178714,1.380701 -1.3802104,1.380701 -0.7628681,0 -1.3807395,-0.618513 -1.3807395,-1.380701"
       style="fill:#201d20;fill-opacity:1;fill-rule:nonzero;stroke:none;stroke-width:0.0533108"
       id="path1454" />
    <path
       d="m 11.289065,54.226085 c 0,-0.762187 0.617872,-1.380275 1.38074,-1.380275 0.761281,0 1.380225,0.618088 1.380225,1.380275 0,0.76256 -0.618944,1.380009 -1.380225,1.380009 -0.762868,0 -1.38074,-0.617449 -1.38074,-1.380009"
       style="fill:#201d20;fill-opacity:1;fill-rule:nonzero;stroke:none;stroke-width:0.0533108"
       id="path1456" />
    <path
       d="m 60.97994,40.620317 c 0,-0.762187 0.617871,-1.380275 1.380209,-1.380275 0.762339,0 1.380213,0.618088 1.380213,1.380275 0,0.762188 -0.617874,1.380009 -1.380213,1.380009 -0.762338,0 -1.380209,-0.617821 -1.380209,-1.380009"
       style="fill:#201d20;fill-opacity:1;fill-rule:nonzero;stroke:none;stroke-width:0.0533108"
       id="path1458" />
    <path
       d="m 54.176963,14.295878 c 0,-0.762347 0.617871,-1.380221 1.380209,-1.380221 0.762355,0 1.380755,0.617874 1.380755,1.380221 0,0.762348 -0.6184,1.380222 -1.380755,1.380222 -0.762338,0 -1.380209,-0.617874 -1.380209,-1.380222"
       style="fill:#201d20;fill-opacity:1;fill-rule:nonzero;stroke:none;stroke-width:0.0533108"
       id="path1460" />
    <g
       id="g1462"
       transform="matrix(0.05331067,0,0,-0.053311,-216.48556,77.288691)">
      <g
         id="g1464"
         clip-path="url(#clipPath1468)">
        <path
           d="m 5039.62,590.508 c 14.88,22.801 27.26,46.758 37.12,71.504 9.39,23.523 16.52,47.754 21.39,72.343 5.23,26.438 7.89,53.282 7.89,80.157 0,28.32 -3.01,56.629 -8.83,84.472 -5.48,26.192 -13.54,51.922 -24.16,76.836 -9.79,22.95 -21.69,45.18 -35.84,66.37 -3.3,4.94 -6.75,9.79 -10.28,14.61 -1.09,1.49 -2.21,2.96 -3.32,4.43 -2.6,3.44 -5.25,6.86 -7.96,10.23 -1.22,1.52 -2.45,3.05 -3.7,4.56 -3.46,4.18 -7.01,8.32 -10.66,12.4 l -1.25,1.42 c -4.49,4.97 -9.14,9.87 -13.93,14.65 -5.06,5.06 -10.23,9.96 -15.48,14.69 l -0.02,0.02 0.02,-0.02 -0.02,0.02 -1.31,1.13 c -4.37,3.91 -8.82,7.68 -13.31,11.37 -1.6,1.31 -3.22,2.58 -4.84,3.87 -3.57,2.83 -7.17,5.6 -10.82,8.3 -1.57,1.17 -3.13,2.34 -4.72,3.48 -5.11,3.69 -10.27,7.27 -15.5,10.68 -22.79,14.88 -46.76,27.25 -71.5,37.13 -23.53,9.39 -47.76,16.51 -72.34,21.37 -26.45,5.24 -53.3,7.88 -80.16,7.88 -28.32,0 -56.63,-3 -84.47,-8.82 -26.19,-5.47 -51.91,-13.53 -76.82,-24.16 -22.95,-9.78 -45.2,-21.68 -66.38,-35.84 -22,-14.69 -42.9,-31.7 -62.31,-51.1 -20.48,-20.49 -38.3,-42.63 -53.54,-65.99 -14.87,-22.8 -27.25,-46.762 -37.12,-71.508 -9.38,-23.523 -16.52,-47.742 -21.38,-72.336 -5.22,-26.433 -7.88,-53.289 -7.88,-80.144 0,-28.34 3.01,-56.641 8.83,-84.473 5.47,-26.191 13.53,-51.934 24.15,-76.836 9.79,-22.949 21.69,-45.195 35.85,-66.387 3.29,-4.929 6.75,-9.785 10.27,-14.609 1.1,-1.484 2.21,-2.949 3.32,-4.434 2.59,-3.437 5.25,-6.843 7.97,-10.222 1.22,-1.516 2.44,-3.047 3.69,-4.563 3.47,-4.187 7.02,-8.34 10.68,-12.414 4.89,-5.445 9.93,-10.808 15.16,-16.062 20.48,-20.469 42.63,-38.301 65.99,-53.528 22.8,-14.871 46.76,-27.254 71.5,-37.129 23.53,-9.382 47.75,-16.511 72.35,-21.375 26.43,-5.234 53.29,-7.89 80.15,-7.89 28.33,0 56.63,3.008 84.47,8.828 26.19,5.477 51.93,13.535 76.84,24.16 22.94,9.785 45.19,21.699 66.37,35.84 22,14.707 42.9,31.699 62.31,51.102 20.47,20.48 38.3,42.628 53.53,65.988 z m -9.67,461.962 c -0.72,1.01 -1.41,2.05 -2.16,3.06 0.75,-1.01 1.44,-2.03 2.16,-3.06 z m -7.88,10.71 c -1.87,2.46 -3.78,4.91 -5.72,7.35 1.94,-2.44 3.85,-4.89 5.72,-7.35 z m -10.53,13.3 c -3.31,3.99 -6.69,7.93 -10.16,11.81 3.47,-3.89 6.85,-7.82 10.16,-11.81 z m -42.38,43.95 c -4.17,3.73 -8.42,7.32 -12.7,10.85 4.28,-3.53 8.53,-7.13 12.7,-10.85 z m -19,15.88 c -2.58,2.04 -5.19,4.02 -7.81,5.99 2.62,-1.97 5.23,-3.96 7.81,-5.99 z m -15.91,11.97 c -1.05,0.74 -2.11,1.45 -3.16,2.17 1.05,-0.72 2.11,-1.43 3.16,-2.17 z M 4362.23,576.582 c 0.73,-1.035 1.43,-2.09 2.18,-3.105 -0.75,1.015 -1.45,2.07 -2.18,3.105 z m 7.88,-10.723 c 1.89,-2.48 3.8,-4.941 5.75,-7.382 -1.94,2.441 -3.87,4.902 -5.75,7.382 z m 10.55,-13.32 c 3.31,-3.992 6.69,-7.949 10.19,-11.848 -3.49,3.899 -6.88,7.844 -10.19,11.848"
           id="path1470" />
      </g>
    </g>
    <path
       d="m 54.801768,29.457687 c -0.292682,-1.390031 -0.719693,-2.73075 -1.268261,-4.007709 -0.521912,-1.21405 -1.152041,-2.371112 -1.879743,-3.457058 -0.782061,-1.168044 -1.675009,-2.257187 -2.665535,-3.247172 -1.045411,-1.04543 -2.200653,-1.978372 -3.44226,-2.790831 -1.168043,-0.765013 -2.414969,-1.417008 -3.725347,-1.94372 -1.208029,-0.48513 -2.466152,-0.866303 -3.770667,-1.125928 -0.303866,-0.06024 -0.609878,-0.112492 -0.918549,-0.159933 -0.0943,-0.01496 -0.190317,-0.02719 -0.285731,-0.04104 -0.222854,-0.03092 -0.44622,-0.05918 -0.670129,-0.08316 -0.101854,-0.01118 -0.203115,-0.02292 -0.305467,-0.03199 -0.281485,-0.02719 -0.565086,-0.04905 -0.850304,-0.06451 l -0.09868,-0.0063 c -0.348658,-0.01759 -0.701048,-0.02613 -1.054495,-0.02613 -0.373168,0 -0.744749,0.0095 -1.113655,0.02932 h -5.29e-4 5.29e-4 -5.29e-4 l -0.08961,0.0059 c -0.305469,0.01706 -0.608806,0.04159 -0.911084,0.07196 -0.106538,0.01073 -0.213771,0.02345 -0.320927,0.03572 -0.235635,0.02666 -0.471257,0.0581 -0.704762,0.0933 -0.101249,0.01496 -0.202589,0.02826 -0.303337,0.04478 -0.324131,0.05331 -0.64666,0.110361 -0.965457,0.178059 -1.389806,0.292144 -2.730045,0.719698 -4.007361,1.268269 -1.21442,0.521914 -2.370736,1.152583 -3.457206,1.880279 -1.168027,0.782072 -2.256642,1.674498 -3.247682,2.666083 -1.044882,1.044362 -1.978361,2.199612 -2.790281,3.441224 -0.76447,1.168046 -1.415936,2.414403 -1.943711,3.72532 -0.485116,1.207815 -0.866293,2.467714 -1.125382,3.771327 -0.269759,1.35362 -0.413698,2.751594 -0.413698,4.182622 0,1.5119 0.160471,2.986269 0.459547,4.409618 0.292138,1.390032 0.719165,2.730111 1.268263,4.007068 0.521368,1.214693 1.15204,2.370475 1.879727,3.457539 0.782604,1.168257 1.675025,2.256335 2.666064,3.2476 1.044898,1.044736 2.200141,1.978318 3.441747,2.790458 1.168027,0.764266 2.413895,1.416099 3.724818,1.942973 1.207485,0.485609 2.467737,0.86689 3.771726,1.126568 0.303337,0.0604 0.609878,0.112492 0.917474,0.159346 0.09551,0.01496 0.190847,0.02809 0.285748,0.041 0.222837,0.03189 0.446746,0.05956 0.671713,0.08396 0.101248,0.01103 0.202044,0.02244 0.304395,0.03225 0.282559,0.02645 0.566161,0.04787 0.851906,0.0635 0.381706,0.02084 0.765016,0.03332 1.151511,0.03332 1.511364,0 2.985405,-0.159719 4.408803,-0.459168 1.390335,-0.29257 2.730561,-0.720125 4.007363,-1.268216 1.214406,-0.521648 2.37072,-1.152637 3.457189,-1.880438 1.168043,-0.781965 2.256644,-1.674712 3.248213,-2.66555 1.044897,-1.045429 1.977831,-2.200785 2.790282,-3.442346 0.764485,-1.16783 1.415934,-2.414614 1.94318,-3.725105 0.485132,-1.207174 0.866835,-2.467073 1.126455,-3.770688 0.269214,-1.353619 0.413152,-2.751967 0.413152,-4.183687 0,-1.510833 -0.159395,-2.985203 -0.459531,-4.408553 z M 37.403295,12.772783 c -0.06347,-0.01118 -0.127392,-0.024 -0.191918,-0.03412 0.06453,0.01013 0.128449,0.02293 0.191918,0.03412 z M 36.718251,12.6683 c -0.160469,-0.02132 -0.319868,-0.04212 -0.481925,-0.05971 0.162057,0.01812 0.321456,0.03785 0.481925,0.05971 z M 35.83916,12.565948 c -0.269213,-0.02506 -0.538975,-0.04585 -0.810847,-0.06078 0.271872,0.01546 0.541634,0.03572 0.810847,0.06078 z m -4.471699,0.05758 c -0.170066,0.02026 -0.33959,0.04265 -0.508582,0.06717 0.168463,-0.02506 0.338516,-0.04691 0.508582,-0.06717 z m -1.028364,0.145541 c -0.06604,0.01118 -0.13117,0.024 -0.19671,0.03625 0.06559,-0.01224 0.130567,-0.02506 0.19671,-0.03625 z m -0.01209,42.19086 c 0.06498,0.01103 0.130112,0.02356 0.19512,0.03396 -0.06498,-0.01043 -0.130111,-0.02293 -0.19512,-0.03396 z m 1.566794,0.206792 c 0.26923,0.02501 0.540576,0.04579 0.812993,0.06104 -0.272417,-0.01525 -0.543763,-0.03539 -0.812993,-0.06104"
       style="fill:#ebe7ea;fill-opacity:1;fill-rule:nonzero;stroke:none;stroke-width:0.0533108"
       id="path1472" />
    <text
       xml:space="preserve"
       style="font-style:normal;font-variant:normal;font-weight:normal;font-stretch:normal;font-size:33.5139px;line-height:1.25;font-family:serif;-inkscape-font-specification:serif;letter-spacing:-5.29167px;word-spacing:0px;fill:#000000;fill-opacity:1;stroke:none;stroke-width:0.278704"
       x="35.084991"
       y="45.214809"
       id="text26342"><tspan
         sodipodi:role="line"
         id="tspan26340"
         style="font-style:normal;font-variant:normal;font-weight:normal;font-stretch:normal;font-size:31.75px;font-family:serif;-inkscape-font-specification:serif;text-align:center;text-anchor:middle;fill:#000000;fill-opacity:1;stroke-width:0.278704"
         x="35.084991"
         y="45.214809">5</tspan><tspan
         sodipodi:role="line"
         style="font-style:normal;font-variant:normal;font-weight:normal;font-stretch:normal;font-size:33.5139px;font-family:serif;-inkscape-font-specification:serif;fill:#000000;fill-opacity:1;stroke-width:0.278704"
         x="35.084991"
         y="87.107185"
         id="tspan87472" /></text>
    <text
       xml:space="preserve"
       style="font-style:normal;font-weight:normal;font-size:18.5114px;line-height:1.25;font-family:sans-serif;fill:#000000;fill-opacity:1;stroke:none;stroke-width:0.462786"
       x="30.011923"
       y="28.396551"
       id="text251856"
       transform="scale(0.66713567,1.4989455)"><tspan
         sodipodi:role="line"
         id="tspan251854"
         style="stroke-width:0.462786"
         x="30.011923"
         y="28.396551">&lt;</tspan></text>
  </g>
</svg>
