<?xml version="1.0" encoding="UTF-8" standalone="no"?>
<!-- Created with Inkscape (http://www.inkscape.org/) -->

<svg
        width="256.00003"
        height="255.99998"
        viewBox="0 0 67.733337 67.73333"
        version="1.1"
        id="svg24233"
        inkscape:version="1.1 (c68e22c387, 2021-05-23)"
        sodipodi:docname="unknown.svg"
        xmlns:inkscape="http://www.inkscape.org/namespaces/inkscape"
        xmlns:sodipodi="http://sodipodi.sourceforge.net/DTD/sodipodi-0.dtd"
        xmlns="http://www.w3.org/2000/svg"
>
  <sodipodi:namedview
     id="namedview24235"
     pagecolor="#505050"
     bordercolor="#ffffff"
     borderopacity="1"
     inkscape:pageshadow="0"
     inkscape:pageopacity="0"
     inkscape:pagecheckerboard="1"
     inkscape:document-units="px"
     showgrid="false"
     fit-margin-top="0"
     fit-margin-left="0"
     fit-margin-right="0"
     fit-margin-bottom="0"
     units="px"
     inkscape:zoom="4.3994184"
     inkscape:cx="12.160698"
     inkscape:cy="115.58346"
     inkscape:window-width="2560"
     inkscape:window-height="1377"
     inkscape:window-x="-8"
     inkscape:window-y="-8"
     inkscape:window-maximized="1"
     inkscape:current-layer="layer1" />
  <defs
     id="defs24230">
    <rect
       x="111.22331"
       y="128.90332"
       width="38.57456"
       height="51.754201"
       id="rect35526" />
    <inkscape:path-effect
       effect="fill_between_many"
       method="originald"
       linkedpaths="#path28,0,1"
       id="path-effect18135"
       is_visible="true"
       lpeversion="0"
       join="true"
       close="true"
       autoreverse="true"
       applied="false" />
    <clipPath
       clipPathUnits="userSpaceOnUse"
       id="clipPath40">
      <path
         d="m 2422.88,2784.52 c -16.47,-25.24 -30.17,-51.77 -41.1,-79.17 -10.39,-26.05 -18.29,-52.86 -23.67,-80.08 -5.79,-29.27 -8.73,-59 -8.73,-88.73 0,-31.37 3.33,-62.71 9.77,-93.53 6.06,-28.99 14.98,-57.49 26.74,-85.06 10.84,-25.41 24.02,-50.03 39.69,-73.49 16.27,-24.35 35.08,-47.49 56.56,-68.97 22.69,-22.68 47.21,-42.41 73.07,-59.28 25.24,-16.47 51.77,-30.16 79.17,-41.09 26.04,-10.4 52.85,-18.29 80.08,-23.67 29.27,-5.79 59,-8.74 88.73,-8.73 31.36,-0.01 62.71,3.33 93.53,9.77 28.98,6.06 57.48,14.98 85.06,26.74 25.41,10.83 50.02,24.02 73.49,39.69 24.34,16.26 47.48,35.09 68.97,56.57 22.67,22.67 42.4,47.2 59.28,73.06 16.46,25.24 30.15,51.77 41.09,79.16 10.39,26.04 18.28,52.86 23.67,80.08 5.78,29.28 8.73,59 8.73,88.75 0,31.35 -3.34,62.69 -9.76,93.51 -6.08,29 -14.98,57.49 -26.76,85.06 -10.82,25.41 -24.01,50.03 -39.69,73.49 -16.27,24.35 -35.08,47.49 -56.56,68.98 -22.68,22.67 -47.19,42.4 -73.05,59.27 -25.25,16.47 -51.78,30.16 -79.18,41.1 -26.03,10.39 -52.85,18.28 -80.08,23.67 -29.27,5.79 -59,8.72 -88.74,8.72 -31.36,0 -62.7,-3.33 -93.52,-9.77 -28.99,-6.06 -57.48,-14.98 -85.06,-26.74 -25.41,-10.83 -50.03,-24.02 -73.48,-39.69 -24.36,-16.26 -47.5,-35.09 -68.98,-56.57 -22.68,-22.68 -42.41,-47.2 -59.27,-73.05 z m 216.16,135.58 c 25.35,10.8 51.54,19.01 78.19,24.58 28.32,5.92 57.14,8.98 85.96,8.98 27.34,0 54.66,-2.7 81.58,-8.02 25.02,-4.95 49.66,-12.21 73.61,-21.76 25.17,-10.04 49.57,-22.63 72.75,-37.78 23.77,-15.5 46.31,-33.64 67.15,-54.47 19.75,-19.74 37.05,-41.02 51.99,-63.4 14.42,-21.57 26.55,-44.2 36.49,-67.55 10.82,-25.35 19.02,-51.54 24.59,-78.19 5.92,-28.33 8.98,-57.13 8.98,-85.95 0,-27.34 -2.71,-54.66 -8.03,-81.58 -4.96,-25.02 -12.2,-49.66 -21.75,-73.6 -10.04,-25.18 -22.64,-49.56 -37.78,-72.77 -15.5,-23.77 -33.63,-46.31 -54.49,-67.16 -19.73,-19.73 -41.01,-37.04 -63.4,-51.99 -21.56,-14.4 -44.18,-26.52 -67.54,-36.48 -25.35,-10.81 -51.54,-19.01 -78.18,-24.58 -28.32,-5.92 -57.14,-8.98 -85.97,-8.99 -27.33,0.01 -54.65,2.71 -81.55,8.03 -25.03,4.95 -49.68,12.21 -73.62,21.76 -25.18,10.04 -49.56,22.63 -72.77,37.77 -23.77,15.51 -46.31,33.64 -67.15,54.48 -19.75,19.75 -37.05,41.02 -52,63.41 -14.4,21.56 -26.52,44.19 -36.48,67.54 -10.81,25.34 -19,51.54 -24.58,78.19 -5.91,28.32 -8.98,57.13 -8.98,85.96 0,27.34 2.69,54.66 8.02,81.57 4.96,25.02 12.21,49.67 21.76,73.61 10.04,25.18 22.64,49.56 37.78,72.77 15.5,23.76 33.64,46.3 54.48,67.14 19.74,19.74 41.01,37.05 63.4,52.01 21.55,14.39 44.19,26.51 67.54,36.47"
         id="path38" />
    </clipPath>
    <clipPath
       clipPathUnits="userSpaceOnUse"
       id="clipPath128">
      <path
         d="m 2236.91,2269.64 c -3.21,6.8 -6.4,13.61 -9.37,20.53 -16.01,37.37 -28.49,76.62 -37.02,117.32 -3.53,16.81 -6.34,33.89 -8.49,51.16 l -9.18,-1.15 c 2.19,-17.53 5.04,-34.86 8.61,-51.92 8.66,-41.3 21.33,-81.12 37.58,-119.04 3.01,-7.03 6.25,-13.94 9.51,-20.84 l 8.36,3.94"
         id="path126" />
    </clipPath>
    <clipPath
       clipPathUnits="userSpaceOnUse"
       id="clipPath138">
      <path
         d="m 3245.86,2093.86 c -16.31,-16.3 -33.61,-31.6 -51.62,-46.04 l 5.76,-7.21 c 18.3,14.65 35.84,30.17 52.4,46.71 30.69,30.68 58.19,64.52 82.09,100.92 l -7.73,5.06 c -23.56,-35.87 -50.67,-69.21 -80.9,-99.44"
         id="path136" />
    </clipPath>
    <clipPath
       clipPathUnits="userSpaceOnUse"
       id="clipPath148">
      <path
         d="m 2570.34,1955.28 c -28.55,11.44 -56.04,24.95 -82.33,40.3 l -4.65,-8 c 26.67,-15.57 54.57,-29.26 83.55,-40.88 32.95,-13.22 67.27,-23.71 102.68,-31.29 l 1.95,9.04 c -34.9,7.47 -68.72,17.81 -101.2,30.83"
         id="path146" />
    </clipPath>
    <clipPath
       clipPathUnits="userSpaceOnUse"
       id="clipPath158">
      <path
         d="m 3378.85,2782.88 c 16.01,-37.37 28.49,-76.61 37.03,-117.32 3.51,-16.81 6.35,-33.88 8.5,-51.15 l 9.16,1.14 c -2.17,17.54 -5.04,34.86 -8.62,51.92 -8.65,41.3 -21.31,81.12 -37.56,119.05 -3.02,7.03 -6.25,13.94 -9.51,20.83 l -8.38,-3.94 c 3.23,-6.79 6.41,-13.61 9.38,-20.53"
         id="path156" />
    </clipPath>
    <clipPath
       clipPathUnits="userSpaceOnUse"
       id="clipPath168">
      <path
         d="m 3036.05,3117.78 c 28.54,-11.45 56.04,-24.95 82.33,-40.3 l 4.67,7.99 c -26.68,15.58 -54.59,29.28 -83.56,40.89 -32.95,13.21 -67.28,23.71 -102.69,31.28 l -1.94,-9.03 c 34.89,-7.47 68.71,-17.81 101.19,-30.83"
         id="path166" />
    </clipPath>
    <clipPath
       clipPathUnits="userSpaceOnUse"
       id="clipPath178">
      <path
         d="m 2182.03,2458.65 c -3.18,25.51 -4.86,51.5 -4.86,77.88 0,41.9 4.15,82.82 12.01,122.42 7.56,38.17 18.6,75.09 32.77,110.43 15.39,38.39 34.48,74.9 56.83,109.1 l 0.85,1.27 -7.73,5.07 -0.87,-1.29 c -22.67,-34.7 -42.05,-71.75 -57.67,-110.71 -14.38,-35.86 -25.57,-73.33 -33.26,-112.07 -7.96,-40.17 -12.17,-81.71 -12.17,-124.22 0,-26.77 1.7,-53.14 4.92,-79.03 l 9.18,1.15"
         id="path176" />
    </clipPath>
    <clipPath
       clipPathUnits="userSpaceOnUse"
       id="clipPath188">
      <path
         d="m 2488.01,1995.58 c -9.06,5.29 -17.99,10.81 -26.76,16.53 -36.37,23.77 -70.13,51.17 -100.72,81.76 -29,29 -55.15,60.85 -78.04,95.06 -17.13,25.62 -32.32,52.62 -45.58,80.71 l -8.36,-3.94 c 13.45,-28.51 28.87,-55.9 46.25,-81.9 23.23,-34.72 49.76,-67.04 79.2,-96.48 31.04,-31.03 65.3,-58.84 102.2,-82.95 8.89,-5.82 17.96,-11.41 27.16,-16.79 l 4.65,8"
         id="path186" />
    </clipPath>
    <clipPath
       clipPathUnits="userSpaceOnUse"
       id="clipPath198">
      <path
         d="m 3194.24,2047.82 c -14.04,-11.22 -28.48,-21.97 -43.46,-32 -31.82,-21.27 -65.66,-39.71 -101.23,-54.94 -37.38,-16.02 -76.62,-28.5 -117.32,-37.03 -41.64,-8.73 -84.79,-13.34 -129.04,-13.34 -41.89,0 -82.81,4.15 -122.41,12.01 -3.1,0.6 -6.17,1.27 -9.24,1.93 l -1.95,-9.04 c 3.12,-0.67 6.24,-1.35 9.38,-1.97 40.18,-7.96 81.71,-12.17 124.22,-12.17 44.9,0 88.69,4.67 130.95,13.53 41.31,8.66 81.13,21.32 119.04,37.57 36.1,15.46 70.45,34.17 102.74,55.76 15.19,10.17 29.84,21.08 44.08,32.48 l -5.76,7.21"
         id="path196" />
    </clipPath>
    <clipPath
       clipPathUnits="userSpaceOnUse"
       id="clipPath208">
      <path
         d="m 3433.54,2615.55 -9.16,-1.14 v -0.01 c 3.16,-25.51 4.84,-51.49 4.84,-77.87 0,-41.9 -4.14,-82.82 -12.01,-122.42 -7.56,-38.18 -18.6,-75.09 -32.76,-110.43 -15.41,-38.39 -34.49,-74.9 -56.83,-109.11 l -0.86,-1.27 7.73,-5.06 0.86,1.29 c 22.68,34.7 42.05,71.74 57.68,110.71 14.37,35.85 25.58,73.32 33.26,112.06 7.97,40.18 12.17,81.72 12.17,124.23 0,26.77 -1.7,53.13 -4.92,79.02"
         id="path206" />
    </clipPath>
    <clipPath
       clipPathUnits="userSpaceOnUse"
       id="clipPath218">
      <path
         d="m 3118.38,3077.48 c 9.06,-5.29 17.99,-10.8 26.78,-16.53 36.34,-23.76 70.11,-51.16 100.7,-81.75 29,-29.01 55.16,-60.86 78.05,-95.08 17.13,-25.61 32.3,-52.62 45.56,-80.71 l 8.38,3.94 c -13.46,28.51 -28.87,55.91 -46.25,81.9 -23.24,34.72 -49.76,67.05 -79.2,96.48 -31.03,31.04 -65.31,58.85 -102.2,82.96 -8.91,5.82 -17.95,11.41 -27.15,16.78 l -4.67,-7.99"
         id="path216" />
    </clipPath>
    <clipPath
       clipPathUnits="userSpaceOnUse"
       id="clipPath230">
      <path
         d="m 2412.16,3025.23 c 14.03,11.23 28.47,21.98 43.44,32 31.81,21.28 65.67,39.71 101.24,54.95 37.37,16.02 76.61,28.5 117.31,37.02 41.65,8.73 84.81,13.35 129.04,13.35 41.91,0 82.83,-4.15 122.44,-12 3.08,-0.61 6.15,-1.28 9.23,-1.94 l 1.94,9.03 c -3.13,0.68 -6.23,1.36 -9.38,1.98 -40.17,7.96 -81.7,12.18 -124.23,12.18 -44.89,0 -88.68,-4.69 -130.94,-13.54 -41.31,-8.66 -81.12,-21.32 -119.05,-37.58 -36.09,-15.46 -70.45,-34.17 -102.74,-55.76 -15.19,-10.16 -29.84,-21.08 -44.08,-32.47 l 5.78,-7.22"
         id="path228" />
    </clipPath>
    <clipPath
       clipPathUnits="userSpaceOnUse"
       id="clipPath240">
      <path
         d="m 2360.53,2979.2 c 16.31,16.3 33.61,31.6 51.63,46.03 l -5.78,7.22 c -18.28,-14.65 -35.84,-30.17 -52.39,-46.72 -30.67,-30.68 -58.18,-64.5 -82.09,-100.91 l 7.73,-5.07 c 23.56,35.88 50.67,69.21 80.9,99.45"
         id="path238" />
    </clipPath>
    <clipPath
       clipPathUnits="userSpaceOnUse"
       id="clipPath262">
      <path
         d="m 3146.72,2312.53 c 14.88,22.8 27.24,46.76 37.13,71.51 9.37,23.52 16.5,47.74 21.38,72.33 5.22,26.44 7.88,53.29 7.88,80.16 0,28.32 -3.01,56.63 -8.83,84.47 -5.47,26.19 -13.54,51.93 -24.14,76.84 -9.79,22.95 -21.7,45.18 -35.86,66.37 -3.3,4.93 -6.74,9.79 -10.28,14.61 -1.09,1.49 -2.2,2.96 -3.32,4.44 -2.59,3.44 -5.25,6.84 -7.97,10.22 -1.21,1.52 -2.44,3.06 -3.69,4.56 -3.45,4.18 -7.01,8.32 -10.66,12.39 l -1.25,1.44 c -4.49,4.97 -9.14,9.85 -13.93,14.65 -5.05,5.06 -10.21,9.95 -15.48,14.69 l -0.02,0.01 0.02,-0.01 -0.02,0.01 -1.31,1.13 c -4.36,3.9 -8.81,7.68 -13.3,11.36 -1.61,1.31 -3.23,2.59 -4.85,3.87 -3.55,2.84 -7.17,5.61 -10.82,8.31 -1.56,1.16 -3.12,2.34 -4.7,3.49 -5.12,3.67 -10.28,7.26 -15.51,10.67 -22.8,14.88 -46.76,27.25 -71.51,37.13 -23.53,9.39 -47.75,16.51 -72.34,21.37 -26.45,5.24 -53.29,7.89 -80.16,7.89 -28.32,0 -56.63,-3.01 -84.46,-8.83 -26.19,-5.47 -51.92,-13.53 -76.83,-24.15 -22.95,-9.79 -45.19,-21.7 -66.38,-35.85 -21.99,-14.7 -42.9,-31.69 -62.3,-51.09 -20.49,-20.49 -38.3,-42.64 -53.54,-66 -14.87,-22.8 -27.25,-46.77 -37.13,-71.5 -9.38,-23.53 -16.51,-47.75 -21.37,-72.34 -5.23,-26.44 -7.88,-53.29 -7.88,-80.15 0,-28.33 3,-56.64 8.82,-84.48 5.47,-26.19 13.53,-51.92 24.16,-76.83 9.78,-22.95 21.69,-45.18 35.84,-66.38 3.3,-4.93 6.75,-9.79 10.28,-14.61 1.09,-1.48 2.21,-2.95 3.32,-4.43 2.59,-3.44 5.25,-6.85 7.96,-10.23 1.23,-1.52 2.44,-3.05 3.69,-4.55 3.48,-4.2 7.03,-8.34 10.69,-12.42 4.89,-5.45 9.92,-10.82 15.16,-16.06 20.48,-20.48 42.63,-38.3 65.99,-53.53 22.8,-14.88 46.76,-27.26 71.5,-37.13 23.53,-9.38 47.75,-16.51 72.34,-21.38 26.43,-5.23 53.29,-7.88 80.15,-7.88 28.33,0 56.65,3.01 84.49,8.83 26.19,5.47 51.91,13.52 76.83,24.15 22.93,9.79 45.18,21.69 66.37,35.85 21.99,14.69 42.91,31.69 62.3,51.09 20.49,20.49 38.3,42.64 53.54,65.99 z m -9.67,461.96 c -0.72,1.02 -1.42,2.05 -2.17,3.06 0.75,-1.01 1.45,-2.04 2.17,-3.06 z m -7.87,10.71 c -1.89,2.46 -3.79,4.91 -5.72,7.34 1.93,-2.43 3.83,-4.88 5.72,-7.34 z m -10.55,13.3 c -3.3,3.98 -6.68,7.93 -10.15,11.81 3.47,-3.88 6.85,-7.82 10.15,-11.81 z m -42.38,43.95 c -4.16,3.73 -8.4,7.32 -12.7,10.85 4.3,-3.52 8.54,-7.13 12.7,-10.85 z m -19,15.89 c -2.58,2.03 -5.18,4.01 -7.8,5.98 2.62,-1.96 5.22,-3.95 7.8,-5.98 z m -15.9,11.96 c -1.06,0.75 -2.11,1.44 -3.17,2.18 1.06,-0.74 2.11,-1.43 3.17,-2.18 z m -572.03,-571.7 c 0.73,-1.03 1.44,-2.08 2.18,-3.11 -0.74,1.03 -1.45,2.07 -2.18,3.11 z m 7.89,-10.72 c 1.89,-2.48 3.79,-4.95 5.74,-7.38 -1.94,2.45 -3.86,4.9 -5.74,7.38 z m 10.54,-13.33 c 3.31,-3.98 6.7,-7.94 10.2,-11.84 -3.5,3.9 -6.89,7.85 -10.2,11.84"
         id="path260" />
    </clipPath>
    <filter
       style="color-interpolation-filters:sRGB;"
       inkscape:label="Greyscale"
       id="filter222655"
       x="0"
       y="0"
       width="1"
       height="1">
      <feColorMatrix
         values="0.21 0.72 0.072 0.1 0 0.21 0.72 0.072 0.1 0 0.21 0.72 0.072 0.1 0 0 0 0 1 0 "
         id="feColorMatrix222653" />
    </filter>
  </defs>
  <g
     inkscape:label="Layer 1"
     inkscape:groupmode="layer"
     id="layer1">
    <g
       id="g24011"
       transform="matrix(0.53311363,0,0,-0.53311085,-4.8879603,175.45554)"
       style="filter:url(#filter222655)">
      <path
         style="color:#000000;fill:#e81e4a;stroke-width:0.0999997;-inkscape-stroke:none;image-rendering:auto"
         d="m 120.24413,275.60344 c -0.664,3.157 -1.635,6.201 -2.88099,9.101 -1.18299,2.759 -2.61699,5.385 -4.26898,7.853 -1.77599,2.654 -3.80498,5.125 -6.05497,7.376 -2.37298,2.374 -4.99797,4.494 -7.815956,6.339 -2.654986,1.735 -5.484971,3.216 -8.462956,4.414 -2.741985,1.102 -5.60197,1.968 -8.564955,2.557 -0.688996,0.137 -1.383993,0.256 -2.083989,0.363 -0.215999,0.034 -0.432998,0.062 -0.649997,0.093 -0.505997,0.071 -1.011995,0.134 -1.522992,0.19 -0.230999,0.025 -0.460998,0.051 -0.691996,0.073 -0.640997,0.06 -1.284994,0.109 -1.93199,0.144 l -0.224999,0.016 c -0.792996,0.04 -1.591992,0.06 -2.394988,0.06 -0.846995,0 -1.690991,-0.023 -2.527987,-0.067 h -0.003 0.003 -0.003 l -0.203999,-0.015 c -0.691997,-0.039 -1.381993,-0.094 -2.06699,-0.162 -0.244998,-0.025 -0.485997,-0.054 -0.728996,-0.082 -0.536997,-0.061 -1.069994,-0.131 -1.601992,-0.211 -0.229998,-0.033 -0.459997,-0.066 -0.687996,-0.103 -0.736996,-0.12 -1.468992,-0.251 -2.193989,-0.404 -3.156983,-0.663 -6.200967,-1.634 -9.100952,-2.88 -2.757986,-1.185 -5.383972,-2.617 -7.851959,-4.27 -2.653987,-1.777 -5.125974,-3.804 -7.375962,-6.055 -2.373988,-2.374 -4.493977,-4.997 -6.337967,-7.817 -1.734991,-2.653 -3.216983,-5.484 -4.413977,-8.461 -1.101994,-2.742 -1.96799,-5.604 -2.556987,-8.565 -0.611997,-3.074 -0.938995,-6.25 -0.938995,-9.501 0,-3.433 0.361998,-6.782 1.042995,-10.015 0.663996,-3.157 1.634991,-6.201 2.879985,-9.101 1.185993,-2.758 2.617986,-5.385 4.269977,-7.852 1.776991,-2.654 3.804981,-5.126 6.054969,-7.376 2.372988,-2.374 4.997974,-4.493 7.817959,-6.339 2.651986,-1.735 5.483972,-3.216 8.460956,-4.413 2.741986,-1.103 5.602971,-1.969 8.564956,-2.557 0.688996,-0.138 1.384993,-0.256 2.084989,-0.364 0.214999,-0.034 0.431998,-0.062 0.648997,-0.093 0.505997,-0.071 1.013994,-0.134 1.523992,-0.189 0.229998,-0.026 0.459997,-0.051 0.690996,-0.074 0.641997,-0.061 1.286993,-0.11 1.93599,-0.145 0.865995,-0.047 1.736991,-0.075 2.614986,-0.075 3.432982,0 6.780965,0.363 10.014948,1.044 3.155984,0.663 6.200968,1.634 9.101953,2.88 2.756986,1.184 5.383972,2.617 7.850959,4.27 2.653989,1.776 5.124979,3.804 7.376959,6.055 2.37299,2.373 4.49198,4.997 6.33797,7.816 1.73599,2.654 3.21698,5.485 4.41398,8.462 1.10399,2.742 1.96899,5.604 2.55898,8.565 0.611,3.074 0.939,6.25 0.939,9.501 0,3.433 -0.365,6.781 -1.04499,10.014 z m -39.514799,37.896 c -0.145,0.024 -0.290999,0.053 -0.437998,0.076 0.146999,-0.024 0.292998,-0.051 0.437998,-0.076 z m -1.556992,0.236 c -0.364998,0.049 -0.728997,0.095 -1.093995,0.136 0.364998,-0.041 0.728997,-0.087 1.093995,-0.136 z m -1.99799,0.232 c -0.610997,0.057 -1.222994,0.104 -1.84099,0.139 0.615996,-0.035 1.229993,-0.081 1.84099,-0.139 z m -7.232962,0.132 c -0.661997,-0.038 -1.319993,-0.091 -1.97399,-0.156 0.653997,0.065 1.311993,0.118 1.97399,0.156 z m -2.922985,-0.262 c -0.386998,-0.046 -0.771996,-0.097 -1.154994,-0.151 0.382998,0.055 0.767996,0.105 1.154994,0.151 z m -2.335988,-0.33 c -0.149999,-0.025 -0.296998,-0.056 -0.445998,-0.082 0.149,0.027 0.296999,0.056 0.445998,0.082 z m -0.026,-95.826 c 0.147999,-0.025 0.294999,-0.054 0.441998,-0.079 -0.146999,0.025 -0.293999,0.053 -0.441998,0.079 z m 1.558992,-0.238 c 0.364998,-0.05 0.731996,-0.096 1.098994,-0.137 -0.366998,0.042 -0.733996,0.087 -1.098994,0.137 z m 1.99899,-0.232 c 0.611996,-0.057 1.226993,-0.105 1.84699,-0.138 -0.619997,0.033 -1.234994,0.08 -1.84699,0.138"
         id="path16" />
      <path
         style="color:#000000;fill:#f7f2f4;stroke-width:0.0999997;-inkscape-stroke:none;image-rendering:auto"
         d="m 25.503618,245.39344 c -1.312993,3.064 -2.335988,6.281 -3.034984,9.617 -0.288999,1.379 -0.519998,2.778 -0.696997,4.194 l -12.1109369,-1.518 c 0.2189989,-1.753 0.5039969,-3.486 0.8609959,-5.192 0.865995,-4.13 2.132989,-8.112 3.75798,-11.904 0.300999,-0.703 0.624997,-1.394 0.950995,-2.084 l 11.040943,5.204 c -0.262999,0.556 -0.524998,1.115 -0.767996,1.683"
         id="path18" />
      <path
         style="color:#000000;fill:#f7f2f4;stroke-width:0.0999997;-inkscape-stroke:none;image-rendering:auto"
         d="m 125.8241,230.76044 -10.21095,6.693 c -1.92899,-2.941 -4.14998,-5.675 -6.62897,-8.154 -1.33799,-1.336 -2.75498,-2.591 -4.23197,-3.773 l 7.62296,-9.529 c 1.82999,1.465 3.58398,3.017 5.23997,4.671 3.06898,3.068 5.81897,6.452 8.20896,10.092"
         id="path20" />
      <path
         style="color:#000000;fill:#f7f2f4;stroke-width:0.0999997;-inkscape-stroke:none;image-rendering:auto"
         d="m 53.605472,217.93844 c -2.339988,0.939 -4.593977,2.046 -6.748965,3.305 l -6.144968,-10.549 c 2.666986,-1.557 5.456971,-2.926 8.354956,-4.088 3.294983,-1.322 6.726965,-2.371 10.267947,-3.129 l 2.569986,11.943 c -2.860985,0.613 -5.63697,1.451 -8.298956,2.518"
         id="path22" />
      <path
         style="color:#000000;fill:#f7f2f4;stroke-width:0.0999997;-inkscape-stroke:none;image-rendering:auto"
         d="m 119.88713,285.78444 c 1.31199,-3.063 2.33598,-6.28 3.03498,-9.617 0.289,-1.379 0.519,-2.777 0.695,-4.194 l 12.11193,1.518 c -0.21699,1.754 -0.50399,3.486 -0.86199,5.192 -0.865,4.13 -2.13099,8.112 -3.75598,11.905 -0.302,0.703 -0.625,1.394 -0.951,2.083 l -11.04094,-5.203 c 0.262,-0.557 0.524,-1.116 0.768,-1.684"
         id="path24" />
      <path
         style="color:#000000;fill:#f7f2f4;stroke-width:0.0999997;-inkscape-stroke:none;image-rendering:auto"
         d="m 91.783273,313.23944 c 2.341988,-0.938 4.595976,-2.046 6.749965,-3.304 l 6.146972,10.548 c -2.66799,1.558 -5.458976,2.928 -8.355961,4.089 -3.294982,1.321 -6.727965,2.371 -10.268946,3.128 l -2.568987,-11.943 c 2.859985,-0.612 5.636971,-1.45 8.296957,-2.518"
         id="path26" />
      <path
         inkscape:original-d="M -207.62317,11.936439"
         inkscape:path-effect="#path-effect18135"
         d="m 135.72904,273.49144 -12.11193,-1.518 0.002,-0.006 c -0.178,1.418 -0.408,2.82 -0.697,4.2 -0.699,3.337 -1.72299,6.554 -3.03498,9.617 -0.244,0.57 -0.506,1.129 -0.77,1.687 l 0.002,-0.003 11.04094,5.203 c -1.34599,2.851 -2.88698,5.591 -4.62497,8.19 -2.32399,3.472 -4.97598,6.705 -7.91996,9.648 -3.10299,3.104 -6.53097,5.885 -10.21995,8.296 -0.89099,0.582 -1.79499,1.141 -2.71498,1.678 l -6.146972,-10.548 0.002,-0.001 c -2.155989,1.259 -4.409977,2.366 -6.751965,3.305 -2.659986,1.068 -5.436972,1.906 -8.296957,2.518 l 2.568987,11.943 c -0.312999,0.068 -0.622997,0.136 -0.937995,0.198 -4.016979,0.796 -8.169958,1.218 -12.422936,1.218 -4.488976,0 -8.867954,-0.469 -13.093932,-1.354 -4.130978,-0.866 -8.111957,-2.132 -11.904938,-3.758 -3.608981,-1.546 -7.044963,-3.417 -10.273946,-5.576 -1.518992,-1.016 -2.983985,-2.108 -4.407977,-3.247 l 7.62496,-9.529 c -1.477992,-1.183 -2.895985,-2.437 -4.232978,-3.774 -2.507987,-2.508 -4.753975,-5.276 -6.701965,-8.256 l 0.072,0.103 -10.209947,6.693 -0.087,-0.129 c -2.266988,-3.47 -4.204978,-7.175 -5.76697,-11.071 -1.437992,-3.586 -2.556987,-7.333 -3.325983,-11.207 -0.7959955,-4.017 -1.2169933,-8.171 -1.2169933,-12.422 0,-2.677 0.1699991,-5.314 0.4919974,-7.903 l 12.1109369,1.518 -10e-4,0.013 c 0.175999,-1.421 0.407998,-2.824 0.697997,-4.207 0.698996,-3.336 1.721991,-6.553 3.034984,-9.617 0.242998,-0.568 0.504997,-1.127 0.767996,-1.683 l -11.040943,-5.204 c 1.344993,-2.851 2.886985,-5.59 4.624976,-8.19 2.322988,-3.472 4.975974,-6.704 7.919959,-9.648 3.103984,-3.103 6.529966,-5.884 10.219947,-8.295 0.888995,-0.582 1.79599,-1.141 2.715986,-1.679 l 6.144968,10.549 -10e-4,0.001 c 2.155988,-1.26 4.409977,-2.367 6.749965,-3.306 2.896985,-1.161 5.923969,-2.066 9.053953,-2.686 -0.253999,0.05 -0.502998,0.114 -0.754997,0.168 l -2.569986,-11.943 c 0.311998,-0.067 0.623997,-0.135 0.937995,-0.197 4.017979,-0.796 8.170957,-1.217 12.421935,-1.217 4.489977,0 8.868954,0.467 13.094932,1.353 4.130979,0.866 8.112958,2.132 11.903938,3.757 3.609978,1.546 7.044968,3.417 10.273948,5.576 1.51899,1.017 2.98398,2.108 4.40798,3.248 l -7.62296,9.529 c 1.47699,1.183 2.89398,2.437 4.23197,3.773 2.47899,2.479 4.69998,5.213 6.62897,8.154 l 10.21095,-6.693 0.086,0.129 c 2.26798,3.47 4.20497,7.174 5.76797,11.071 1.43699,3.585 2.55798,7.332 3.32598,11.206 0.79699,4.018 1.21699,8.172 1.21699,12.423 0,2.677 -0.17,5.313 -0.492,7.902 z"
         id="path18137"
         style="stroke-width:0.0999997;image-rendering:auto" />
      <path
         style="color:#000000;fill:#e81e4a;stroke-width:0.0999997;-inkscape-stroke:none;image-rendering:auto"
         d="m 135.72904,273.49144 -12.11193,-1.518 0.002,-0.006 c -0.178,1.418 -0.408,2.82 -0.697,4.2 -0.699,3.337 -1.72299,6.554 -3.03498,9.617 -0.244,0.57 -0.506,1.129 -0.77,1.687 l 0.002,-0.003 11.04094,5.203 c -1.34599,2.851 -2.88698,5.591 -4.62497,8.19 -2.32399,3.472 -4.97598,6.705 -7.91996,9.648 -3.10299,3.104 -6.53097,5.885 -10.21995,8.296 -0.89099,0.582 -1.79499,1.141 -2.71498,1.678 l -6.146972,-10.548 0.002,-0.001 c -2.155989,1.259 -4.409977,2.366 -6.751965,3.305 -2.659986,1.068 -5.436972,1.906 -8.296957,2.518 l 2.568987,11.943 c -0.312999,0.068 -0.622997,0.136 -0.937995,0.198 -4.016979,0.796 -8.169958,1.218 -12.422936,1.218 -4.488976,0 -8.867954,-0.469 -13.093932,-1.354 -4.130978,-0.866 -8.111957,-2.132 -11.904938,-3.758 -3.608981,-1.546 -7.044963,-3.417 -10.273946,-5.576 -1.518992,-1.016 -2.983985,-2.108 -4.407977,-3.247 l 7.62496,-9.529 c -1.477992,-1.183 -2.895985,-2.437 -4.232978,-3.774 -2.507987,-2.508 -4.753975,-5.276 -6.701965,-8.256 l 0.072,0.103 -10.209947,6.693 -0.087,-0.129 c -2.266988,-3.47 -4.204978,-7.175 -5.76697,-11.071 -1.437992,-3.586 -2.556987,-7.333 -3.325983,-11.207 -0.7959955,-4.017 -1.2169933,-8.171 -1.2169933,-12.422 0,-2.677 0.1699991,-5.314 0.4919974,-7.903 l 12.1109369,1.518 -10e-4,0.013 c 0.175999,-1.421 0.407998,-2.824 0.697997,-4.207 0.698996,-3.336 1.721991,-6.553 3.034984,-9.617 0.242998,-0.568 0.504997,-1.127 0.767996,-1.683 l -11.040943,-5.204 c 1.344993,-2.851 2.886985,-5.59 4.624976,-8.19 2.322988,-3.472 4.975974,-6.704 7.919959,-9.648 3.103984,-3.103 6.529966,-5.884 10.219947,-8.295 0.888995,-0.582 1.79599,-1.141 2.715986,-1.679 l 6.144968,10.549 -10e-4,0.001 c 2.155988,-1.26 4.409977,-2.367 6.749965,-3.306 2.896985,-1.161 5.923969,-2.066 9.053953,-2.686 -0.253999,0.05 -0.502998,0.114 -0.754997,0.168 l -2.569986,-11.943 c 0.311998,-0.067 0.623997,-0.135 0.937995,-0.197 4.017979,-0.796 8.170957,-1.217 12.421935,-1.217 4.489977,0 8.868954,0.467 13.094932,1.353 4.130979,0.866 8.112958,2.132 11.903938,3.757 3.609978,1.546 7.044968,3.417 10.273948,5.576 1.51899,1.017 2.98398,2.108 4.40798,3.248 l -7.62296,9.529 c 1.47699,1.183 2.89398,2.437 4.23197,3.773 2.47899,2.479 4.69998,5.213 6.62897,8.154 l 10.21095,-6.693 0.086,0.129 c 2.26798,3.47 4.20497,7.174 5.76797,11.071 1.43699,3.585 2.55798,7.332 3.32598,11.206 0.79699,4.018 1.21699,8.172 1.21699,12.423 0,2.677 -0.17,5.313 -0.492,7.902 z m -17.30491,15.383 c -0.09,0.175 -0.17799,0.351 -0.26999,0.525 0.092,-0.174 0.18,-0.35 0.26999,-0.525 z m -1.91599,3.439 c -0.36499,0.598 -0.73799,1.19 -1.12699,1.771 0.389,-0.581 0.764,-1.173 1.12699,-1.771 z m 1.013,-1.743 c -0.164,0.295 -0.333,0.588 -0.503,0.879 0.17,-0.292 0.339,-0.583 0.503,-0.879 z m -73.321619,17.705 c -0.619997,-0.415 -1.226994,-0.847 -1.826991,-1.288 0.598997,0.443 1.206994,0.873 1.826991,1.288 z m -22.609883,-47.358 0.021,-0.235 z m -0.190999,3.154 c 0.004,-0.126 0.01,-0.252 0.015,-0.377 -0.005,0.125 -0.011,0.251 -0.015,0.377 z m 0.07,-1.551 c 0.007,-0.118 0.016,-0.236 0.023,-0.354 -0.007,0.118 -0.016,0.236 -0.023,0.354 z m 5.497971,-20.216 c 0.089,-0.176 0.178999,-0.353 0.270999,-0.528 -0.092,0.176 -0.181999,0.352 -0.270999,0.528 z m 1.91399,-3.438 c 0.365998,-0.598 0.738996,-1.191 1.127994,-1.772 -0.388998,0.581 -0.762996,1.174 -1.127994,1.772 z m -1.012995,1.743 c 0.166,-0.297 0.335999,-0.591 0.507998,-0.885 -0.170999,0.294 -0.342998,0.588 -0.507998,0.885 z m 73.321615,-17.707 c 0.622,0.415 1.229,0.848 1.83099,1.29 -0.59999,-0.444 -1.20899,-0.875 -1.83099,-1.29 z m 8.85996,18.33 c -1.69499,-2.589 -3.64098,-4.998 -5.81997,-7.177 -2.06699,-2.067 -4.335979,-3.928 -6.773966,-5.56 -2.265989,-1.518 -4.677976,-2.832 -7.208963,-3.92 -2.661986,-1.144 -5.456972,-2.035 -8.356956,-2.645 -2.968985,-0.625 -6.042969,-0.957 -9.194953,-0.957 -2.984984,0 -5.900969,0.299 -8.722954,0.861 -2.718986,0.541 -5.345973,1.336 -7.863959,2.348 -2.733986,1.1 -5.332973,2.459 -7.76896,4.053 -2.588987,1.694 -4.997974,3.641 -7.176963,5.82 -2.066989,2.066 -3.927979,4.336 -5.559971,6.772 -1.516992,2.266 -2.831985,4.678 -3.919979,7.21 -1.143994,2.663 -2.03499,5.458 -2.644987,8.356 -0.624996,2.969 -0.957995,6.044 -0.957995,9.196 0,2.985 0.299999,5.901 0.861996,8.723 0.540997,2.719 1.335993,5.347 2.348988,7.865 1.098994,2.732 2.458987,5.332 4.051979,7.768 1.693991,2.589 3.639981,4.998 5.818969,7.178 2.06699,2.066 4.335978,3.927 6.772965,5.559 2.264988,1.518 4.676976,2.833 7.208963,3.92 2.662986,1.144 5.458971,2.036 8.356956,2.646 2.968985,0.624 6.042969,0.958 9.194952,0.958 2.985985,0 5.90197,-0.301 8.723955,-0.862 2.718986,-0.542 5.345972,-1.337 7.862959,-2.349 2.734986,-1.099 5.333972,-2.459 7.76996,-4.053 2.589986,-1.694 4.997974,-3.64 7.177964,-5.819 2.06599,-2.067 3.92698,-4.336 5.55797,-6.773 1.51999,-2.266 2.83398,-4.677 3.92198,-7.209 1.14299,-2.664 2.03499,-5.459 2.64499,-8.357 0.62499,-2.969 0.95699,-6.043 0.95699,-9.195 0,-2.985 -0.299,-5.901 -0.862,-8.723 -0.54099,-2.719 -1.33599,-5.346 -2.34698,-7.864 -1.1,-2.734 -2.45899,-5.334 -4.05298,-7.77 z m 13.72993,29.255 0.02,-0.214 z m 0.119,-1.487 c 0.008,-0.111 0.016,-0.223 0.022,-0.335 -0.006,0.112 -0.014,0.224 -0.022,0.335 z m 0.079,-1.523 c 0.005,-0.123 0.011,-0.246 0.015,-0.369 -0.004,0.123 -0.01,0.246 -0.015,0.369"
         id="path28" />
      <path
         style="color:#000000;fill:#f7f2f4;stroke-width:0.0999997;-inkscape-stroke:none;image-rendering:auto"
         d="m 36.405561,301.87844 c 1.336993,1.337 2.754986,2.591 4.232978,3.774 l -7.62496,9.529 c -1.827991,-1.465 -3.583982,-3.017 -5.238973,-4.672 -3.066984,-3.068 -5.81797,-6.45 -8.208957,-10.091 l 10.209947,-6.693 c 1.930989,2.941 4.151978,5.675 6.629965,8.153"
         id="path30" />
      <path
         style="color:#000000;fill:#f15970;stroke-width:0.0999997;-inkscape-stroke:none;image-rendering:auto"
         d="m 112.82416,274.04144 c -0.55999,2.663 -1.37899,5.233 -2.43098,7.681 -0.998,2.327 -2.20699,4.544 -3.60198,6.627 -1.5,2.239 -3.21099,4.326 -5.11098,6.225 -2.003988,2.003 -4.216976,3.792 -6.597964,5.349 -2.237988,1.465 -4.628976,2.715 -7.140963,3.726 -2.313988,0.93 -4.727975,1.66 -7.227962,2.158 -2.593987,0.516 -5.273973,0.792 -8.018959,0.792 -2.896985,0 -5.72297,-0.306 -8.451956,-0.88 -2.663986,-0.561 -5.232972,-1.38 -7.68096,-2.432 -2.326988,-0.999 -4.543976,-2.208 -6.626965,-3.603 -2.238989,-1.5 -4.324978,-3.211 -6.224968,-5.11 -2.00299,-2.003 -3.79198,-4.218 -5.348972,-6.597 -1.463993,-2.239 -2.713986,-4.629 -3.724981,-7.141 -0.929995,-2.314 -1.660991,-4.73 -2.157989,-7.229 -0.515997,-2.594 -0.792995,-5.275 -0.792995,-8.018 0,-2.897 0.306998,-5.723 0.879995,-8.452 0.560997,-2.664 1.380993,-5.234 2.431987,-7.681 0.999995,-2.328 2.208989,-4.544 3.602982,-6.627 1.499992,-2.239 3.210983,-4.326 5.109973,-6.225 2.00399,-2.004 4.217978,-3.793 6.597966,-5.349 2.238988,-1.465 4.627976,-2.715 7.140963,-3.725 2.313988,-0.931 4.728975,-1.662 7.227962,-2.159 1.95399,-0.389 3.955979,-0.64 5.996969,-0.742 -2.00899,0.1 -3.978979,0.35 -5.901969,0.732 -2.469988,0.492 -4.854975,1.214 -7.142963,2.134 -2.481987,0.998 -4.843975,2.233 -7.055964,3.681 -2.351987,1.539 -4.539976,3.306 -6.518966,5.285 -1.87699,1.877 -3.567981,3.939 -5.049973,6.152 -1.377993,2.058 -2.572987,4.248 -3.559982,6.548 -1.038995,2.418 -1.84899,4.958 -2.403987,7.591 -0.565998,2.696 -0.868996,5.489 -0.868996,8.352 0,2.711 0.272999,5.359 0.782996,7.923 0.490997,2.469 1.212994,4.856 2.132989,7.143 0.997995,2.482 2.232988,4.844 3.680981,7.057 1.537992,2.351 3.305983,4.539 5.284972,6.518 1.876991,1.877 3.93798,3.568 6.151968,5.05 2.05799,1.378 4.247978,2.572 6.547966,3.561 2.417988,1.039 4.956974,1.848 7.589961,2.402 2.696986,0.567 5.489971,0.871 8.351956,0.871 2.710986,0 5.360972,-0.273 7.924959,-0.784 2.468987,-0.491 4.853975,-1.213 7.142963,-2.132 2.481987,-0.999 4.842975,-2.234 7.055963,-3.682 2.351988,-1.538 4.538977,-3.306 6.517963,-5.286 1.87699,-1.877 3.56798,-3.938 5.05098,-6.151 1.37899,-2.058 2.57198,-4.249 3.55998,-6.549 1.03899,-2.418 1.84799,-4.957 2.40299,-7.59 0.56799,-2.696 0.86899,-5.489 0.86899,-8.351 0,-2.712 -0.272,-5.36 -0.78299,-7.924 -0.491,-2.469 -1.213,-4.856 -2.13299,-7.143 -0.998,-2.482 -2.23299,-4.844 -3.67998,-7.056 -1.539,-2.352 -3.30699,-4.541 -5.28698,-6.52 -1.876987,-1.877 -3.937976,-3.568 -6.149965,-5.049 -2.058989,-1.379 -4.247978,-2.572 -6.548966,-3.561 -2.417987,-1.039 -4.956974,-1.849 -7.59196,-2.403 -2.694986,-0.567 -5.487972,-0.869 -8.350957,-0.869 2.896985,0 5.723971,0.306 8.451956,0.88 2.664987,0.561 5.234973,1.38 7.68196,2.431 2.325988,1 4.542977,2.209 6.626966,3.604 2.237988,1.499 4.323977,3.21 6.224966,5.11 2.00399,2.003 3.79298,4.217 5.34897,6.597 1.465,2.239 2.71499,4.628 3.72498,7.141 0.93,2.315 1.662,4.729 2.15799,7.228 0.518,2.595 0.793,5.275 0.793,8.019 0,2.897 -0.307,5.723 -0.881,8.452"
         id="path32" />
      <g
         id="g34"
         transform="matrix(0.09999948,0,0,0.1,-207.62317,11.936439)"
         style="image-rendering:auto">
        <g
           id="g36"
           clip-path="url(#clipPath40)">
          <path
             style="color:#000000;fill:#000000;-inkscape-stroke:none"
             d="m 2422.88,2784.52 c -16.47,-25.24 -30.17,-51.77 -41.1,-79.17 -10.39,-26.05 -18.29,-52.86 -23.67,-80.08 -5.79,-29.27 -8.73,-59 -8.73,-88.73 0,-31.37 3.33,-62.71 9.77,-93.53 6.06,-28.99 14.98,-57.49 26.74,-85.06 10.84,-25.41 24.02,-50.03 39.69,-73.49 16.27,-24.35 35.08,-47.49 56.56,-68.97 22.69,-22.68 47.21,-42.41 73.07,-59.28 25.24,-16.47 51.77,-30.16 79.17,-41.09 26.04,-10.4 52.85,-18.29 80.08,-23.67 29.27,-5.79 59,-8.74 88.73,-8.73 31.36,-0.01 62.71,3.33 93.53,9.77 28.98,6.06 57.48,14.98 85.06,26.74 25.41,10.83 50.02,24.02 73.49,39.69 24.34,16.26 47.48,35.09 68.97,56.57 22.67,22.67 42.4,47.2 59.28,73.06 16.46,25.24 30.15,51.77 41.09,79.16 10.39,26.04 18.28,52.86 23.67,80.08 5.78,29.28 8.73,59 8.73,88.75 0,31.35 -3.34,62.69 -9.76,93.51 -6.08,29 -14.98,57.49 -26.76,85.06 -10.82,25.41 -24.01,50.03 -39.69,73.49 -16.27,24.35 -35.08,47.49 -56.56,68.98 -22.68,22.67 -47.19,42.4 -73.05,59.27 -25.25,16.47 -51.78,30.16 -79.18,41.1 -26.03,10.39 -52.85,18.28 -80.08,23.67 -29.27,5.79 -59,8.72 -88.74,8.72 -31.36,0 -62.7,-3.33 -93.52,-9.77 -28.99,-6.06 -57.48,-14.98 -85.06,-26.74 -25.41,-10.83 -50.03,-24.02 -73.48,-39.69 -24.36,-16.26 -47.5,-35.09 -68.98,-56.57 -22.68,-22.68 -42.41,-47.2 -59.27,-73.05 z m 216.16,135.58 c 25.35,10.8 51.54,19.01 78.19,24.58 28.32,5.92 57.14,8.98 85.96,8.98 27.34,0 54.66,-2.7 81.58,-8.02 25.02,-4.95 49.66,-12.21 73.61,-21.76 25.17,-10.04 49.57,-22.63 72.75,-37.78 23.77,-15.5 46.31,-33.64 67.15,-54.47 19.75,-19.74 37.05,-41.02 51.99,-63.4 14.42,-21.57 26.55,-44.2 36.49,-67.55 10.82,-25.35 19.02,-51.54 24.59,-78.19 5.92,-28.33 8.98,-57.13 8.98,-85.95 0,-27.34 -2.71,-54.66 -8.03,-81.58 -4.96,-25.02 -12.2,-49.66 -21.75,-73.6 -10.04,-25.18 -22.64,-49.56 -37.78,-72.77 -15.5,-23.77 -33.63,-46.31 -54.49,-67.16 -19.73,-19.73 -41.01,-37.04 -63.4,-51.99 -21.56,-14.4 -44.18,-26.52 -67.54,-36.48 -25.35,-10.81 -51.54,-19.01 -78.18,-24.58 -28.32,-5.92 -57.14,-8.98 -85.97,-8.99 -27.33,0.01 -54.65,2.71 -81.55,8.03 -25.03,4.95 -49.68,12.21 -73.62,21.76 -25.18,10.04 -49.56,22.63 -72.77,37.77 -23.77,15.51 -46.31,33.64 -67.15,54.48 -19.75,19.75 -37.05,41.02 -52,63.41 -14.4,21.56 -26.52,44.19 -36.48,67.54 -10.81,25.34 -19,51.54 -24.58,78.19 -5.91,28.32 -8.98,57.13 -8.98,85.96 0,27.34 2.69,54.66 8.02,81.57 4.96,25.02 12.21,49.67 21.76,73.61 10.04,25.18 22.64,49.56 37.78,72.77 15.5,23.76 33.64,46.3 54.48,67.14 19.74,19.74 41.01,37.05 63.4,52.01 21.55,14.39 44.19,26.51 67.54,36.47"
             id="path42" />
        </g>
      </g>
      <path
         style="color:#000000;fill:#ac1a31;stroke-width:0.0999997;-inkscape-stroke:none;image-rendering:auto"
         d="m 106.7912,288.34944 2.99598,2.001 c -1.63099,2.437 -3.49198,4.706 -5.55797,6.773 l -2.54899,-2.549 c 1.89999,-1.899 3.61098,-3.986 5.11098,-6.225"
         id="path44" />
      <path
         style="color:#000000;fill:#ddd6d6;stroke-width:0.0999997;-inkscape-stroke:none;image-rendering:auto"
         d="m 110.39318,281.72244 3.31598,1.419 c -1.088,2.532 -2.40199,4.943 -3.92198,7.209 l -2.99598,-2.001 c 1.39499,-2.083 2.60398,-4.3 3.60198,-6.627"
         id="path46" />
      <path
         style="color:#000000;fill:#ac1a31;stroke-width:0.0999997;-inkscape-stroke:none;image-rendering:auto"
         d="m 112.82416,274.04144 3.52999,0.743 c -0.61,2.898 -1.502,5.693 -2.64499,8.357 l -3.31598,-1.419 c 1.05199,-2.448 1.87099,-5.018 2.43098,-7.681"
         id="path48" />
      <path
         style="color:#000000;fill:#ddd6d6;stroke-width:0.0999997;-inkscape-stroke:none;image-rendering:auto"
         d="m 101.68022,236.60444 2.54899,-2.549 c 2.17899,2.179 4.12498,4.588 5.81997,7.177 l -3.01999,1.969 c -1.55599,-2.38 -3.34498,-4.594 -5.34897,-6.597"
         id="path50" />
      <path
         style="color:#000000;fill:#ddd6d6;stroke-width:0.0999997;-inkscape-stroke:none;image-rendering:auto"
         d="m 34.63557,280.83644 -3.345982,1.341 c -1.012995,-2.518 -1.807991,-5.146 -2.348988,-7.865 l 3.536981,-0.705 c 0.496998,2.499 1.227994,4.915 2.157989,7.229"
         id="path52" />
      <path
         style="color:#000000;fill:#ac1a31;stroke-width:0.0999997;-inkscape-stroke:none;image-rendering:auto"
         d="m 32.564581,257.13744 -3.527982,-0.744 c 0.609997,-2.898 1.500993,-5.693 2.644987,-8.356 l 3.314982,1.419 c -1.050994,2.447 -1.87099,5.017 -2.431987,7.681"
         id="path54" />
      <path
         style="color:#000000;fill:#ac1a31;stroke-width:0.0999997;-inkscape-stroke:none;image-rendering:auto"
         d="m 32.477581,273.60744 -3.536981,0.705 c -0.561997,-2.822 -0.861996,-5.738 -0.861996,-8.723 h 3.605982 c 0,2.743 0.276998,5.424 0.792995,8.018"
         id="path56" />
      <path
         style="color:#000000;fill:#ddd6d6;stroke-width:0.0999997;-inkscape-stroke:none;image-rendering:auto"
         d="m 31.684586,265.58944 h -3.605982 c 0,-3.152 0.332999,-6.227 0.957995,-9.196 l 3.527982,0.744 c -0.572997,2.729 -0.879995,5.555 -0.879995,8.452"
         id="path58" />
      <path
         style="color:#000000;fill:#ddd6d6;stroke-width:0.0999997;-inkscape-stroke:none;image-rendering:auto"
         d="m 34.996568,249.45644 -3.314982,-1.419 c 1.087994,-2.532 2.402987,-4.944 3.919979,-7.21 l 2.997985,2.002 c -1.393993,2.083 -2.602987,4.299 -3.602982,6.627"
         id="path60" />
      <path
         style="color:#000000;fill:#ddd6d6;stroke-width:0.0999997;-inkscape-stroke:none;image-rendering:auto"
         d="m 43.709523,236.60444 -2.547987,-2.549 c 2.178989,-2.179 4.587976,-4.126 7.176963,-5.82 l 1.96899,3.02 c -2.379988,1.556 -4.593976,3.345 -6.597966,5.349"
         id="path62" />
      <path
         style="color:#000000;fill:#ac1a31;stroke-width:0.0999997;-inkscape-stroke:none;image-rendering:auto"
         d="m 38.59955,242.82944 -2.997985,-2.002 c 1.631992,-2.436 3.492982,-4.706 5.559971,-6.772 l 2.547987,2.549 c -1.89899,1.899 -3.609981,3.986 -5.109973,6.225"
         id="path64" />
      <path
         style="color:#000000;fill:#ac1a31;stroke-width:0.0999997;-inkscape-stroke:none;image-rendering:auto"
         d="m 50.307489,231.25544 -1.96899,-3.02 c 2.435987,-1.594 5.034974,-2.953 7.76896,-4.053 l 1.340993,3.348 c -2.512987,1.01 -4.901975,2.26 -7.140963,3.725"
         id="path66" />
      <path
         style="color:#000000;fill:#ac1a31;stroke-width:0.0999997;-inkscape-stroke:none;image-rendering:auto"
         d="m 38.360551,287.97744 -3.018984,1.968 c -1.592992,-2.436 -2.952985,-5.036 -4.051979,-7.768 l 3.345982,-1.341 c 1.010995,2.512 2.260988,4.902 3.724981,7.141"
         id="path68" />
      <path
         style="color:#000000;fill:#ddd6d6;stroke-width:0.0999997;-inkscape-stroke:none;image-rendering:auto"
         d="m 72.694372,306.59944 v 3.607 c -3.151983,0 -6.225967,-0.334 -9.194952,-0.958 l 0.742996,-3.529 c 2.728986,0.574 5.554971,0.88 8.451956,0.88"
         id="path70" />
      <path
         style="color:#000000;fill:#ddd6d6;stroke-width:0.0999997;-inkscape-stroke:none;image-rendering:auto"
         d="m 56.561456,303.28744 -1.418992,3.315 c -2.531987,-1.087 -4.943975,-2.402 -7.208963,-3.92 l 2.00099,-2.998 c 2.082989,1.395 4.299977,2.604 6.626965,3.603"
         id="path72" />
      <path
         style="color:#000000;fill:#ac1a31;stroke-width:0.0999997;-inkscape-stroke:none;image-rendering:auto"
         d="m 64.242416,305.71944 -0.742996,3.529 c -2.897985,-0.61 -5.69397,-1.502 -8.356956,-2.646 l 1.418992,-3.315 c 2.447988,1.052 5.016974,1.871 7.68096,2.432"
         id="path74" />
      <path
         style="color:#000000;fill:#ddd6d6;stroke-width:0.0999997;-inkscape-stroke:none;image-rendering:auto"
         d="m 43.709523,294.57444 -2.548987,2.549 c -2.178988,-2.18 -4.124978,-4.589 -5.818969,-7.178 l 3.018984,-1.968 c 1.556992,2.379 3.345982,4.594 5.348972,6.597"
         id="path76" />
      <path
         style="color:#000000;fill:#ac1a31;stroke-width:0.0999997;-inkscape-stroke:none;image-rendering:auto"
         d="m 49.934491,299.68444 -2.00099,2.998 c -2.436987,-1.632 -4.705975,-3.493 -6.772965,-5.559 l 2.548987,-2.549 c 1.89999,1.899 3.985979,3.61 6.224968,5.11"
         id="path78" />
      <path
         style="color:#000000;fill:#ddd6d6;stroke-width:0.0999997;-inkscape-stroke:none;image-rendering:auto"
         d="m 112.82416,274.04144 c 0.574,-2.729 0.881,-5.555 0.881,-8.452 h 3.60598 c 0,3.152 -0.332,6.226 -0.95699,9.195 l -3.52999,-0.743"
         id="path80" />
      <path
         style="color:#000000;fill:#ac1a31;stroke-width:0.0999997;-inkscape-stroke:none;image-rendering:auto"
         d="m 112.91216,257.57044 3.53698,-0.704 c 0.563,2.822 0.862,5.738 0.862,8.723 h -3.60598 c 0,-2.744 -0.275,-5.424 -0.793,-8.019"
         id="path82" />
      <path
         style="color:#000000;fill:#ddd6d6;stroke-width:0.0999997;-inkscape-stroke:none;image-rendering:auto"
         d="m 101.68022,294.57444 2.54899,2.549 c -2.17999,2.179 -4.587978,4.125 -7.177964,5.819 l -1.96899,-3.019 c 2.380988,-1.557 4.593976,-3.346 6.597964,-5.349"
         id="path84" />
      <path
         style="color:#000000;fill:#ddd6d6;stroke-width:0.0999997;-inkscape-stroke:none;image-rendering:auto"
         d="m 110.75417,250.34244 3.34799,-1.34 c 1.01099,2.518 1.80599,5.145 2.34698,7.864 l -3.53698,0.704 c -0.49599,-2.499 -1.22799,-4.913 -2.15799,-7.228"
         id="path86" />
      <path
         style="color:#000000;fill:#ddd6d6;stroke-width:0.0999997;-inkscape-stroke:none;image-rendering:auto"
         d="m 57.448452,227.53044 -1.340993,-3.348 c 2.517987,-1.012 5.144973,-1.807 7.863959,-2.348 l 0.704996,3.537 c -2.498987,0.497 -4.913974,1.228 -7.227962,2.159"
         id="path88" />
      <path
         style="color:#000000;fill:#ac1a31;stroke-width:0.0999997;-inkscape-stroke:none;image-rendering:auto"
         d="m 95.082256,299.92344 1.96899,3.019 c -2.435988,1.594 -5.034974,2.954 -7.76996,4.053 l -1.339993,-3.346 c 2.511987,-1.011 4.902975,-2.261 7.140963,-3.726"
         id="path90" />
      <path
         style="color:#000000;fill:#ddd6d6;stroke-width:0.0999997;-inkscape-stroke:none;image-rendering:auto"
         d="m 87.941293,303.64944 1.339993,3.346 c -2.516987,1.012 -5.143973,1.807 -7.862959,2.349 l -0.704996,-3.537 c 2.499987,-0.498 4.913974,-1.228 7.227962,-2.158"
         id="path92" />
      <path
         style="color:#000000;fill:#ac1a31;stroke-width:0.0999997;-inkscape-stroke:none;image-rendering:auto"
         d="m 107.02919,243.20144 3.01999,-1.969 c 1.59399,2.436 2.95298,5.036 4.05298,7.77 l -3.34799,1.34 c -1.00999,-2.513 -2.25998,-4.902 -3.72498,-7.141"
         id="path94" />
      <path
         style="color:#000000;fill:#ddd6d6;stroke-width:0.0999997;-inkscape-stroke:none;image-rendering:auto"
         d="m 72.694372,224.57944 v -3.606 c 3.151984,0 6.225968,0.332 9.194953,0.957 l -0.742997,3.529 c -2.727985,-0.574 -5.554971,-0.88 -8.451956,-0.88"
         id="path96" />
      <path
         style="color:#000000;fill:#ac1a31;stroke-width:0.0999997;-inkscape-stroke:none;image-rendering:auto"
         d="m 80.713331,305.80744 0.704996,3.537 c -2.821985,0.561 -5.73797,0.862 -8.723955,0.862 v -3.607 c 2.744986,0 5.424972,-0.276 8.018959,-0.792"
         id="path98" />
      <path
         style="color:#000000;fill:#ac1a31;stroke-width:0.0999997;-inkscape-stroke:none;image-rendering:auto"
         d="m 64.676414,225.37144 -0.704996,-3.537 c 2.821985,-0.562 5.73797,-0.861 8.722954,-0.861 v 3.606 c -2.743985,0 -5.422971,0.275 -8.017958,0.792"
         id="path100" />
      <path
         style="color:#000000;fill:#ac1a31;stroke-width:0.0999997;-inkscape-stroke:none;image-rendering:auto"
         d="m 81.146328,225.45944 0.742997,-3.529 c 2.899984,0.61 5.69497,1.501 8.356956,2.645 l -1.417993,3.315 c -2.446987,-1.051 -5.016973,-1.87 -7.68196,-2.431"
         id="path102" />
      <path
         style="color:#000000;fill:#ddd6d6;stroke-width:0.0999997;-inkscape-stroke:none;image-rendering:auto"
         d="m 88.828288,227.89044 1.417993,-3.315 c 2.530987,1.088 4.942974,2.402 7.208963,3.92 l -1.99999,2.999 c -2.083989,-1.395 -4.300978,-2.604 -6.626966,-3.604"
         id="path104" />
      <path
         style="color:#000000;fill:#ac1a31;stroke-width:0.0999997;-inkscape-stroke:none;image-rendering:auto"
         d="m 95.455254,231.49444 1.99999,-2.999 c 2.437987,1.632 4.706976,3.493 6.773966,5.56 l -2.54899,2.549 c -1.900989,-1.9 -3.986978,-3.611 -6.224966,-5.11"
         id="path106" />
      <path
         style="color:#000000;fill:#e81e4a;stroke-width:0.0999997;-inkscape-stroke:none;image-rendering:auto"
         d="m 22.017636,257.50944 c 0.022,-0.137 0.037,-0.276 0.06,-0.412 -0.023,0.136 -0.038,0.275 -0.06,0.412"
         id="path108" />
      <path
         style="color:#000000;fill:#e81e4a;stroke-width:0.0999997;-inkscape-stroke:none;image-rendering:auto"
         d="m 108.98418,229.29944 c 2.47899,2.479 4.69998,5.213 6.62897,8.154 -1.92899,-2.941 -4.14998,-5.675 -6.62897,-8.154"
         id="path110" />
      <path
         style="color:#000000;fill:#e81e4a;stroke-width:0.0999997;-inkscape-stroke:none;image-rendering:auto"
         d="m 57.71245,216.50044 c 1.370993,-0.418 2.767986,-0.775 4.184978,-1.079 -1.416992,0.304 -2.812985,0.663 -4.184978,1.079"
         id="path112" />
      <path
         style="color:#000000;fill:#e81e4a;stroke-width:0.0999997;-inkscape-stroke:none;image-rendering:auto"
         d="m 55.670461,217.16644 c 0.552997,-0.195 1.114994,-0.373 1.675991,-0.548 -0.561997,0.174 -1.121994,0.354 -1.675991,0.548"
         id="path114" />
      <path
         style="color:#000000;fill:#e81e4a;stroke-width:0.0999997;-inkscape-stroke:none;image-rendering:auto"
         d="m 123.31311,274.08244 0.029,-0.2 -0.029,0.2"
         id="path116" />
      <path
         style="color:#000000;fill:#f7f5f5;stroke-width:0.0999997;-inkscape-stroke:none;image-rendering:auto"
         d="m 32.884579,297.97344 c -1.102994,-1.355 -2.135989,-2.768 -3.097984,-4.232 0.961995,1.464 1.99599,2.877 3.097984,4.232"
         id="path118" />
      <path
         style="color:#000000;fill:#f7f5f5;stroke-width:0.0999997;-inkscape-stroke:none;image-rendering:auto"
         d="m 34.59057,299.96744 c -0.537997,-0.597 -1.058994,-1.211 -1.568991,-1.833 0.509997,0.622 1.030994,1.236 1.568991,1.833"
         id="path120" />
      <g
         id="g122"
         transform="matrix(0.09999948,0,0,0.1,-207.62317,11.936439)"
         style="image-rendering:auto">
        <g
           id="g124"
           clip-path="url(#clipPath128)">
          <path
             style="color:#000000;fill:#000000;-inkscape-stroke:none"
             d="m 2236.91,2269.64 c -3.21,6.8 -6.4,13.61 -9.37,20.53 -16.01,37.37 -28.49,76.62 -37.02,117.32 -3.53,16.81 -6.34,33.89 -8.49,51.16 l -9.18,-1.15 c 2.19,-17.53 5.04,-34.86 8.61,-51.92 8.66,-41.3 21.33,-81.12 37.58,-119.04 3.01,-7.03 6.25,-13.94 9.51,-20.84 l 8.36,3.94"
             id="path130" />
        </g>
      </g>
      <g
         id="g132"
         transform="matrix(0.09999948,0,0,0.1,-207.62317,11.936439)"
         style="image-rendering:auto">
        <g
           id="g134"
           clip-path="url(#clipPath138)">
          <path
             style="color:#000000;fill:#000000;-inkscape-stroke:none"
             d="m 3245.86,2093.86 c -16.31,-16.3 -33.61,-31.6 -51.62,-46.04 l 5.76,-7.21 c 18.3,14.65 35.84,30.17 52.4,46.71 30.69,30.68 58.19,64.52 82.09,100.92 l -7.73,5.06 c -23.56,-35.87 -50.67,-69.21 -80.9,-99.44"
             id="path140" />
        </g>
      </g>
      <g
         id="g142"
         transform="matrix(0.09999948,0,0,0.1,-207.62317,11.936439)"
         style="image-rendering:auto">
        <g
           id="g144"
           clip-path="url(#clipPath148)">
          <path
             style="color:#000000;fill:#000000;-inkscape-stroke:none"
             d="m 2570.34,1955.28 c -28.55,11.44 -56.04,24.95 -82.33,40.3 l -4.65,-8 c 26.67,-15.57 54.57,-29.26 83.55,-40.88 32.95,-13.22 67.27,-23.71 102.68,-31.29 l 1.95,9.04 c -34.9,7.47 -68.72,17.81 -101.2,30.83"
             id="path150" />
        </g>
      </g>
      <g
         id="g152"
         transform="matrix(0.09999948,0,0,0.1,-207.62317,11.936439)"
         style="image-rendering:auto">
        <g
           id="g154"
           clip-path="url(#clipPath158)">
          <path
             style="color:#000000;fill:#000000;-inkscape-stroke:none"
             d="m 3378.85,2782.88 c 16.01,-37.37 28.49,-76.61 37.03,-117.32 3.51,-16.81 6.35,-33.88 8.5,-51.15 l 9.16,1.14 c -2.17,17.54 -5.04,34.86 -8.62,51.92 -8.65,41.3 -21.31,81.12 -37.56,119.05 -3.02,7.03 -6.25,13.94 -9.51,20.83 l -8.38,-3.94 c 3.23,-6.79 6.41,-13.61 9.38,-20.53"
             id="path160" />
        </g>
      </g>
      <g
         id="g162"
         transform="matrix(0.09999948,0,0,0.1,-207.62317,11.936439)"
         style="image-rendering:auto">
        <g
           id="g164"
           clip-path="url(#clipPath168)">
          <path
             style="color:#000000;fill:#000000;-inkscape-stroke:none"
             d="m 3036.05,3117.78 c 28.54,-11.45 56.04,-24.95 82.33,-40.3 l 4.67,7.99 c -26.68,15.58 -54.59,29.28 -83.56,40.89 -32.95,13.21 -67.28,23.71 -102.69,31.28 l -1.94,-9.03 c 34.89,-7.47 68.71,-17.81 101.19,-30.83"
             id="path170" />
        </g>
      </g>
      <g
         id="g172"
         transform="matrix(0.09999948,0,0,0.1,-207.62317,11.936439)"
         style="image-rendering:auto">
        <g
           id="g174"
           clip-path="url(#clipPath178)">
          <path
             style="color:#000000;fill:#000000;-inkscape-stroke:none"
             d="m 2182.03,2458.65 c -3.18,25.51 -4.86,51.5 -4.86,77.88 0,41.9 4.15,82.82 12.01,122.42 7.56,38.17 18.6,75.09 32.77,110.43 15.39,38.39 34.48,74.9 56.83,109.1 l 0.85,1.27 -7.73,5.07 -0.87,-1.29 c -22.67,-34.7 -42.05,-71.75 -57.67,-110.71 -14.38,-35.86 -25.57,-73.33 -33.26,-112.07 -7.96,-40.17 -12.17,-81.71 -12.17,-124.22 0,-26.77 1.7,-53.14 4.92,-79.03 l 9.18,1.15"
             id="path180" />
        </g>
      </g>
      <g
         id="g182"
         transform="matrix(0.09999948,0,0,0.1,-207.62317,11.936439)"
         style="image-rendering:auto">
        <g
           id="g184"
           clip-path="url(#clipPath188)">
          <path
             style="color:#000000;fill:#000000;-inkscape-stroke:none"
             d="m 2488.01,1995.58 c -9.06,5.29 -17.99,10.81 -26.76,16.53 -36.37,23.77 -70.13,51.17 -100.72,81.76 -29,29 -55.15,60.85 -78.04,95.06 -17.13,25.62 -32.32,52.62 -45.58,80.71 l -8.36,-3.94 c 13.45,-28.51 28.87,-55.9 46.25,-81.9 23.23,-34.72 49.76,-67.04 79.2,-96.48 31.04,-31.03 65.3,-58.84 102.2,-82.95 8.89,-5.82 17.96,-11.41 27.16,-16.79 l 4.65,8"
             id="path190" />
        </g>
      </g>
      <g
         id="g192"
         transform="matrix(0.09999948,0,0,0.1,-207.62317,11.936439)"
         style="image-rendering:auto">
        <g
           id="g194"
           clip-path="url(#clipPath198)">
          <path
             style="color:#000000;fill:#000000;-inkscape-stroke:none"
             d="m 3194.24,2047.82 c -14.04,-11.22 -28.48,-21.97 -43.46,-32 -31.82,-21.27 -65.66,-39.71 -101.23,-54.94 -37.38,-16.02 -76.62,-28.5 -117.32,-37.03 -41.64,-8.73 -84.79,-13.34 -129.04,-13.34 -41.89,0 -82.81,4.15 -122.41,12.01 -3.1,0.6 -6.17,1.27 -9.24,1.93 l -1.95,-9.04 c 3.12,-0.67 6.24,-1.35 9.38,-1.97 40.18,-7.96 81.71,-12.17 124.22,-12.17 44.9,0 88.69,4.67 130.95,13.53 41.31,8.66 81.13,21.32 119.04,37.57 36.1,15.46 70.45,34.17 102.74,55.76 15.19,10.17 29.84,21.08 44.08,32.48 l -5.76,7.21"
             id="path200" />
        </g>
      </g>
      <g
         id="g202"
         transform="matrix(0.09999948,0,0,0.1,-207.62317,11.936439)"
         style="image-rendering:auto">
        <g
           id="g204"
           clip-path="url(#clipPath208)">
          <path
             style="color:#000000;fill:#000000;-inkscape-stroke:none"
             d="m 3433.54,2615.55 -9.16,-1.14 v -0.01 c 3.16,-25.51 4.84,-51.49 4.84,-77.87 0,-41.9 -4.14,-82.82 -12.01,-122.42 -7.56,-38.18 -18.6,-75.09 -32.76,-110.43 -15.41,-38.39 -34.49,-74.9 -56.83,-109.11 l -0.86,-1.27 7.73,-5.06 0.86,1.29 c 22.68,34.7 42.05,71.74 57.68,110.71 14.37,35.85 25.58,73.32 33.26,112.06 7.97,40.18 12.17,81.72 12.17,124.23 0,26.77 -1.7,53.13 -4.92,79.02"
             id="path210" />
        </g>
      </g>
      <g
         id="g212"
         transform="matrix(0.09999948,0,0,0.1,-207.62317,11.936439)"
         style="image-rendering:auto">
        <g
           id="g214"
           clip-path="url(#clipPath218)">
          <path
             style="color:#000000;fill:#000000;-inkscape-stroke:none"
             d="m 3118.38,3077.48 c 9.06,-5.29 17.99,-10.8 26.78,-16.53 36.34,-23.76 70.11,-51.16 100.7,-81.75 29,-29.01 55.16,-60.86 78.05,-95.08 17.13,-25.61 32.3,-52.62 45.56,-80.71 l 8.38,3.94 c -13.46,28.51 -28.87,55.91 -46.25,81.9 -23.24,34.72 -49.76,67.05 -79.2,96.48 -31.03,31.04 -65.31,58.85 -102.2,82.96 -8.91,5.82 -17.95,11.41 -27.15,16.78 l -4.67,-7.99"
             id="path220" />
          <path
             style="color:#000000;fill:#000000;-inkscape-stroke:none"
             d="m 3118.38,3077.48 c 9.06,-5.29 17.99,-10.8 26.78,-16.53 36.34,-23.76 70.11,-51.16 100.7,-81.75 29,-29.01 55.16,-60.86 78.05,-95.08 17.13,-25.61 32.3,-52.62 45.56,-80.71 l 8.38,3.94 c -13.46,28.51 -28.87,55.91 -46.25,81.9 -23.24,34.72 -49.76,67.05 -79.2,96.48 -31.03,31.04 -65.31,58.85 -102.2,82.96 -8.91,5.82 -17.95,11.41 -27.15,16.78 l -4.67,-7.99"
             id="path222" />
        </g>
      </g>
      <g
         id="g224"
         transform="matrix(0.09999948,0,0,0.1,-207.62317,11.936439)"
         style="image-rendering:auto">
        <g
           id="g226"
           clip-path="url(#clipPath230)">
          <path
             style="color:#000000;fill:#000000;-inkscape-stroke:none"
             d="m 2412.16,3025.23 c 14.03,11.23 28.47,21.98 43.44,32 31.81,21.28 65.67,39.71 101.24,54.95 37.37,16.02 76.61,28.5 117.31,37.02 41.65,8.73 84.81,13.35 129.04,13.35 41.91,0 82.83,-4.15 122.44,-12 3.08,-0.61 6.15,-1.28 9.23,-1.94 l 1.94,9.03 c -3.13,0.68 -6.23,1.36 -9.38,1.98 -40.17,7.96 -81.7,12.18 -124.23,12.18 -44.89,0 -88.68,-4.69 -130.94,-13.54 -41.31,-8.66 -81.12,-21.32 -119.05,-37.58 -36.09,-15.46 -70.45,-34.17 -102.74,-55.76 -15.19,-10.16 -29.84,-21.08 -44.08,-32.47 l 5.78,-7.22"
             id="path232" />
        </g>
      </g>
      <g
         id="g234"
         transform="matrix(0.09999948,0,0,0.1,-207.62317,11.936439)"
         style="image-rendering:auto">
        <g
           id="g236"
           clip-path="url(#clipPath240)">
          <path
             style="color:#000000;fill:#000000;-inkscape-stroke:none"
             d="m 2360.53,2979.2 c 16.31,16.3 33.61,31.6 51.63,46.03 l -5.78,7.22 c -18.28,-14.65 -35.84,-30.17 -52.39,-46.72 -30.67,-30.68 -58.18,-64.5 -82.09,-100.91 l 7.73,-5.07 c 23.56,35.88 50.67,69.21 80.9,99.45"
             id="path242" />
        </g>
      </g>
      <path
         style="color:#000000;fill:#f7f5f5;stroke-width:0.0999997;-inkscape-stroke:none;image-rendering:auto"
         d="m 83.605316,212.04944 c 0,1.43 1.160994,2.589 2.589986,2.589 1.429993,0 2.589987,-1.159 2.589987,-2.589 0,-1.431 -1.159994,-2.589 -2.589987,-2.589 -1.428992,0 -2.589986,1.158 -2.589986,2.589"
         id="path244" />
      <path
         style="color:#000000;fill:#f7f5f5;stroke-width:0.0999997;-inkscape-stroke:none;image-rendering:auto"
         d="m 57.344452,319.12944 c 0,1.43 1.159994,2.589 2.589987,2.589 1.428992,0 2.588986,-1.159 2.588986,-2.589 0,-1.43 -1.159994,-2.589 -2.588986,-2.589 -1.429993,0 -2.589987,1.159 -2.589987,2.589"
         id="path246" />
      <path
         style="color:#000000;fill:#f7f5f5;stroke-width:0.0999997;-inkscape-stroke:none;image-rendering:auto"
         d="m 15.918668,275.29944 c 0,1.429 1.158994,2.588 2.588986,2.588 1.429993,0 2.588987,-1.159 2.588987,-2.588 0,-1.431 -1.158994,-2.59 -2.588987,-2.59 -1.429992,0 -2.588986,1.159 -2.588986,2.59"
         id="path248" />
      <path
         style="color:#000000;fill:#f7f5f5;stroke-width:0.0999997;-inkscape-stroke:none;image-rendering:auto"
         d="m 30.343593,227.39944 c 0,1.43 1.159994,2.589 2.589986,2.589 1.429993,0 2.588987,-1.159 2.588987,-2.589 0,-1.43 -1.158994,-2.59 -2.588987,-2.59 -1.429992,0 -2.589986,1.16 -2.589986,2.59"
         id="path250" />
      <path
         style="color:#000000;fill:#f7f5f5;stroke-width:0.0999997;-inkscape-stroke:none;image-rendering:auto"
         d="m 123.55311,252.92044 c 0,1.43 1.15999,2.59 2.58998,2.59 1.429,0 2.58899,-1.16 2.58899,-2.59 0,-1.429 -1.15999,-2.588 -2.58899,-2.588 -1.42999,0 -2.58998,1.159 -2.58998,2.588"
         id="path252" />
      <path
         style="color:#000000;fill:#f7f5f5;stroke-width:0.0999997;-inkscape-stroke:none;image-rendering:auto"
         d="m 110.79317,302.29944 c 0,1.43 1.158,2.59 2.58999,2.59 1.42999,0 2.58799,-1.16 2.58799,-2.59 0,-1.429 -1.158,-2.588 -2.58799,-2.588 -1.43199,0 -2.58999,1.159 -2.58999,2.588"
         id="path254" />
      <g
         id="g256"
         transform="matrix(0.09999948,0,0,0.1,-207.62317,11.936439)"
         style="image-rendering:auto">
        <g
           id="g258"
           clip-path="url(#clipPath262)">
          <path
             style="color:#000000;fill:#000000;-inkscape-stroke:none"
             d="m 3146.72,2312.53 c 14.88,22.8 27.24,46.76 37.13,71.51 9.37,23.52 16.5,47.74 21.38,72.33 5.22,26.44 7.88,53.29 7.88,80.16 0,28.32 -3.01,56.63 -8.83,84.47 -5.47,26.19 -13.54,51.93 -24.14,76.84 -9.79,22.95 -21.7,45.18 -35.86,66.37 -3.3,4.93 -6.74,9.79 -10.28,14.61 -1.09,1.49 -2.2,2.96 -3.32,4.44 -2.59,3.44 -5.25,6.84 -7.97,10.22 -1.21,1.52 -2.44,3.06 -3.69,4.56 -3.45,4.18 -7.01,8.32 -10.66,12.39 l -1.25,1.44 c -4.49,4.97 -9.14,9.85 -13.93,14.65 -5.05,5.06 -10.21,9.95 -15.48,14.69 l -0.02,0.01 0.02,-0.01 -0.02,0.01 -1.31,1.13 c -4.36,3.9 -8.81,7.68 -13.3,11.36 -1.61,1.31 -3.23,2.59 -4.85,3.87 -3.55,2.84 -7.17,5.61 -10.82,8.31 -1.56,1.16 -3.12,2.34 -4.7,3.49 -5.12,3.67 -10.28,7.26 -15.51,10.67 -22.8,14.88 -46.76,27.25 -71.51,37.13 -23.53,9.39 -47.75,16.51 -72.34,21.37 -26.45,5.24 -53.29,7.89 -80.16,7.89 -28.32,0 -56.63,-3.01 -84.46,-8.83 -26.19,-5.47 -51.92,-13.53 -76.83,-24.15 -22.95,-9.79 -45.19,-21.7 -66.38,-35.85 -21.99,-14.7 -42.9,-31.69 -62.3,-51.09 -20.49,-20.49 -38.3,-42.64 -53.54,-66 -14.87,-22.8 -27.25,-46.77 -37.13,-71.5 -9.38,-23.53 -16.51,-47.75 -21.37,-72.34 -5.23,-26.44 -7.88,-53.29 -7.88,-80.15 0,-28.33 3,-56.64 8.82,-84.48 5.47,-26.19 13.53,-51.92 24.16,-76.83 9.78,-22.95 21.69,-45.18 35.84,-66.38 3.3,-4.93 6.75,-9.79 10.28,-14.61 1.09,-1.48 2.21,-2.95 3.32,-4.43 2.59,-3.44 5.25,-6.85 7.96,-10.23 1.23,-1.52 2.44,-3.05 3.69,-4.55 3.48,-4.2 7.03,-8.34 10.69,-12.42 4.89,-5.45 9.92,-10.82 15.16,-16.06 20.48,-20.48 42.63,-38.3 65.99,-53.53 22.8,-14.88 46.76,-27.26 71.5,-37.13 23.53,-9.38 47.75,-16.51 72.34,-21.38 26.43,-5.23 53.29,-7.88 80.15,-7.88 28.33,0 56.65,3.01 84.49,8.83 26.19,5.47 51.91,13.52 76.83,24.15 22.93,9.79 45.18,21.69 66.37,35.85 21.99,14.69 42.91,31.69 62.3,51.09 20.49,20.49 38.3,42.64 53.54,65.99 z m -9.67,461.96 c -0.72,1.02 -1.42,2.05 -2.17,3.06 0.75,-1.01 1.45,-2.04 2.17,-3.06 z m -7.87,10.71 c -1.89,2.46 -3.79,4.91 -5.72,7.34 1.93,-2.43 3.83,-4.88 5.72,-7.34 z m -10.55,13.3 c -3.3,3.98 -6.68,7.93 -10.15,11.81 3.47,-3.88 6.85,-7.82 10.15,-11.81 z m -42.38,43.95 c -4.16,3.73 -8.4,7.32 -12.7,10.85 4.3,-3.52 8.54,-7.13 12.7,-10.85 z m -19,15.89 c -2.58,2.03 -5.18,4.01 -7.8,5.98 2.62,-1.96 5.22,-3.95 7.8,-5.98 z m -15.9,11.96 c -1.06,0.75 -2.11,1.44 -3.17,2.18 1.06,-0.74 2.11,-1.43 3.17,-2.18 z m -572.03,-571.7 c 0.73,-1.03 1.44,-2.08 2.18,-3.11 -0.74,1.03 -1.45,2.07 -2.18,3.11 z m 7.89,-10.72 c 1.89,-2.48 3.79,-4.95 5.74,-7.38 -1.94,2.45 -3.86,4.9 -5.74,7.38 z m 10.54,-13.33 c 3.31,-3.98 6.7,-7.94 10.2,-11.84 -3.5,3.9 -6.89,7.85 -10.2,11.84"
             id="path264" />
        </g>
      </g>
      <path
         style="color:#000000;fill:#e81e4a;stroke-width:0.0999997;-inkscape-stroke:none;image-rendering:auto"
         d="m 111.96517,273.85944 c -0.549,2.608 -1.34999,5.122 -2.37899,7.518 -0.97899,2.277 -2.16199,4.446 -3.52498,6.484 -1.46899,2.192 -3.14298,4.234 -5.00198,6.092 -1.960985,1.96 -4.126974,3.711 -6.454962,5.235 -2.191988,1.434 -4.529976,2.657 -6.988963,3.645 -2.264988,0.911 -4.626976,1.626 -7.073963,2.112 -0.567998,0.114 -1.142995,0.211 -1.720992,0.3 -0.178999,0.028 -0.358998,0.052 -0.536997,0.077 -0.417998,0.059 -0.835995,0.111 -1.257993,0.157 -0.190999,0.021 -0.379998,0.042 -0.571997,0.06 -0.528997,0.05 -1.060995,0.091 -1.595992,0.12 l -0.184999,0.012 c -0.653997,0.033 -1.314993,0.05 -1.97799,0.05 -0.699996,0 -1.395992,-0.019 -2.087989,-0.055 h -0.002 0.002 -0.002 l -0.167999,-0.012 c -0.572997,-0.032 -1.141994,-0.079 -1.708991,-0.135 -0.199999,-0.02 -0.399998,-0.044 -0.600997,-0.067 -0.442998,-0.051 -0.883995,-0.109 -1.322993,-0.174 -0.189999,-0.028 -0.379998,-0.054 -0.568997,-0.086 -0.606997,-0.099 -1.212994,-0.207 -1.810991,-0.333 -2.606986,-0.548 -5.120973,-1.35 -7.515961,-2.379 -2.277988,-0.978 -4.447976,-2.161 -6.485966,-3.526 -2.190988,-1.468 -4.231978,-3.143 -6.090968,-5.001 -1.95999,-1.96 -3.710981,-4.128 -5.233973,-6.456 -1.433992,-2.191 -2.656986,-4.529 -3.645981,-6.988 -0.910995,-2.265 -1.624992,-4.628 -2.111989,-7.073 -0.505997,-2.539 -0.774996,-5.162 -0.774996,-7.847 0,-2.835 0.299998,-5.601 0.860996,-8.271 0.548997,-2.607 1.350993,-5.122 2.378987,-7.517 0.978995,-2.277 2.160989,-4.447 3.525982,-6.485 1.467992,-2.191 3.142983,-4.233 5.000974,-6.091 1.96099,-1.961 4.126978,-3.711 6.455966,-5.235 2.190989,-1.433 4.529977,-2.657 6.987964,-3.645 2.264988,-0.911 4.627976,-1.626 7.073963,-2.113 0.569997,-0.113 1.143994,-0.21 1.721991,-0.3 0.177999,-0.027 0.356998,-0.051 0.535997,-0.076 0.416998,-0.059 0.836996,-0.111 1.258994,-0.157 0.189999,-0.021 0.379998,-0.042 0.570997,-0.06 0.529997,-0.051 1.061994,-0.091 1.597992,-0.12 0.715996,-0.038 1.434992,-0.062 2.159988,-0.062 2.834986,0 5.600971,0.299 8.270957,0.861 2.606987,0.548 5.120974,1.35 7.516961,2.379 2.277988,0.979 4.447977,2.161 6.484967,3.527 2.190988,1.467 4.231978,3.142 6.091963,5.001 1.96099,1.959 3.71099,4.127 5.23398,6.456 1.43399,2.191 2.65798,4.529 3.64598,6.987 0.91099,2.266 1.62499,4.629 2.11399,7.074 0.504,2.539 0.77299,5.162 0.77299,7.847 0,2.835 -0.29899,5.601 -0.86099,8.27 z m -32.634832,31.298 c -0.121,0.02 -0.239999,0.043 -0.360998,0.063 0.120999,-0.02 0.239998,-0.043 0.360998,-0.063 z m -1.284993,0.195 c -0.300999,0.041 -0.601997,0.079 -0.903996,0.113 0.301999,-0.035 0.602997,-0.072 0.903996,-0.113 z m -1.649992,0.192 c -0.503997,0.047 -1.011995,0.086 -1.521992,0.114 0.509997,-0.029 1.017995,-0.067 1.521992,-0.114 z m -5.974969,0.108 c -0.545997,-0.03 -1.088994,-0.075 -1.629991,-0.128 0.540997,0.054 1.083994,0.097 1.629991,0.128 z m -2.413987,-0.216 c -0.318999,-0.037 -0.636997,-0.08 -0.953995,-0.125 0.316998,0.045 0.634996,0.088 0.953995,0.125 z m -1.92899,-0.273 c -0.123,-0.02 -0.244999,-0.045 -0.367998,-0.067 0.122999,0.022 0.244998,0.047 0.367998,0.067 z m -0.022,-79.141 c 0.122999,-0.02 0.243999,-0.044 0.365998,-0.064 -0.121999,0.02 -0.242999,0.043 -0.365998,0.064 z m 1.288993,-0.196 c 0.300999,-0.04 0.602997,-0.079 0.906995,-0.113 -0.303998,0.035 -0.605996,0.072 -0.906995,0.113 z m 1.649992,-0.192 c 0.505997,-0.047 1.013994,-0.086 1.523992,-0.114 -0.509998,0.029 -1.017995,0.066 -1.523992,0.114"
         id="path266" />
    </g>
    <text
       xml:space="preserve"
       style="font-style:normal;font-variant:normal;font-weight:normal;font-stretch:normal;font-size:33.5139px;line-height:1.25;font-family:serif;-inkscape-font-specification:serif;letter-spacing:-5.29167px;word-spacing:0px;fill:#ffffff;fill-opacity:1;stroke:none;stroke-width:0.278704"
       x="30.910776"
       y="45.424099"
       id="text26342"><tspan
         sodipodi:role="line"
         id="tspan26340"
         style="font-style:normal;font-variant:normal;font-weight:normal;font-stretch:normal;font-size:31.75px;font-family:serif;-inkscape-font-specification:serif;text-align:center;text-anchor:middle;fill:#ffffff;fill-opacity:1;stroke-width:0.278704"
         x="30.910776"
         y="45.424099">?</tspan><tspan
         sodipodi:role="line"
         style="font-style:normal;font-variant:normal;font-weight:normal;font-stretch:normal;font-size:33.5139px;font-family:serif;-inkscape-font-specification:serif;fill:#ffffff;fill-opacity:1;stroke-width:0.278704"
         x="30.910776"
         y="87.316475"
         id="tspan87472" /></text>
    <text
       xml:space="preserve"
       transform="scale(0.26458333)"
       id="text35524"
       style="fill:black;fill-opacity:1;line-height:1.25;stroke:none;font-family:serif;font-style:normal;font-weight:normal;font-size:40px;white-space:pre;shape-inside:url(#rect35526);-inkscape-font-specification:serif;font-stretch:normal;font-variant:normal" />
  </g>
</svg>
